<?xml version="1.0" encoding="utf-8"?>
<!-- Generator: Adobe Illustrator 27.5.0, SVG Export Plug-In . SVG Version: 6.00 Build 0)  -->
<svg version="1.1" xmlns="http://www.w3.org/2000/svg" xmlns:xlink="http://www.w3.org/1999/xlink" x="0px" y="0px"
	 viewBox="0 0 500 500" style="enable-background:new 0 0 500 500;" xml:space="preserve">
<g id="Background">
	<rect id="XMLID_13_" style="fill:#F7F7F7;" width="500" height="500"/>
</g>
<g id="Objects">
	<g id="XMLID_55_">
		<g id="XMLID_61_">
			<path id="XMLID_254_" style="fill:#D5E5EF;" d="M47.184,207.47c-23.674,55.806,9.54,125.528,59.026,160.541
				c41.261,29.193,94.296,35.837,144.84,35.611c43.52-0.195,87.157-4.841,129.216-16.027c27.17-7.227,54.83-17.985,73.144-39.317
				c18.313-21.332,23.908-55.746,5.87-77.311c-15.465-18.489-44.329-24.237-54.717-45.988c-5.464-11.441-4.389-24.742-5.086-37.402
				c-0.698-12.66-4.318-26.722-15.27-33.112c-9.055-5.283-20.598-3.778-30.335-7.662c-14.2-5.664-21.395-21.047-31.284-32.705
				c-19.27-22.718-50.79-32.018-80.569-31.19C242.017,82.909,104.537,72.271,47.184,207.47z"/>
		</g>
		<g id="XMLID_60_">
			<g id="XMLID_17_">
				<g id="XMLID_179_">
					<path id="XMLID_251_" style="fill:#142728;" d="M387.084,343.417c6.588,0.434,13.06,2.393,18.819,5.618
						c-4.135-5.085-9.42-9.198-15.483-11.898c-5.201-2.316-10.956-3.614-17.017-3.614c-16.619,0-30.976,9.679-37.743,23.707
						c-2.057,4.265-3.402,8.934-3.907,13.853c11.064-4.534,19.099-15.143,29.554-21.424
						C369.002,345.035,378.125,342.826,387.084,343.417z"/>
					<path id="XMLID_253_" style="fill:#1F373A;" d="M405.903,349.035c-5.76-3.225-12.231-5.184-18.819-5.618
						c-8.958-0.591-18.082,1.618-25.778,6.242c-10.455,6.281-18.49,16.89-29.554,21.424c-0.146,1.422-0.232,2.862-0.232,4.322
						c0,23.131,18.751,41.883,41.882,41.883c23.131,0,41.883-18.751,41.883-41.883C415.286,365.401,411.757,356.235,405.903,349.035
						z"/>
				</g>
				<g id="XMLID_173_">
					<path id="XMLID_249_" style="fill:#1F373A;" d="M121.221,368.446c-0.545,2.653-0.831,5.399-0.831,8.213
						c0,22.439,18.19,40.629,40.629,40.629s40.629-18.19,40.629-40.629c0-4.483-0.737-8.792-2.078-12.824L121.221,368.446z"/>
					<path id="XMLID_250_" style="fill:#142728;" d="M161.018,336.03c-19.625,0-36,13.914-39.798,32.416l78.349-4.611
						C194.199,347.683,178.974,336.03,161.018,336.03z"/>
				</g>
				<path id="XMLID_171_" style="fill:#4EA8A8;" d="M334.605,272.652c0,0-12.532,3.939-13.215,15.326
					c-0.683,11.387-2.505,29.964,6.604,38.097l5.01,4.261c0,0,6.763-11.113,5.545-35.048
					C338.549,295.289,337.546,281.56,334.605,272.652z"/>
				<g id="XMLID_188_">
					<path id="XMLID_201_" style="fill:#DD5900;" d="M152.834,281.992c7.889,5.654,76.927,1.858,104.413,0.1
						c-12.403-18.463-51.671-19.848-51.671-19.848h-59.948C146.22,270.055,148.026,278.546,152.834,281.992z"/>
					<path id="XMLID_215_" style="fill:#CC5200;" d="M152.834,281.992c-4.808-3.446-6.615-11.937-7.206-19.748h-1.09
						c-2.849,0-4.961,2.645-4.331,5.424l4.133,18.211c0.459,2.022,2.257,3.458,4.33,3.458h8.467l101.549-4.826
						c-0.423-0.841-0.916-1.64-1.439-2.419C229.762,283.851,160.723,287.647,152.834,281.992z"/>
				</g>
				<g id="XMLID_122_">
					<g id="XMLID_190_">
						<g id="XMLID_210_">
							<path id="XMLID_228_" style="fill:#EAD1B7;" d="M261.73,178.772c-0.237-0.752-0.454-1.444-0.655-2.083
								C261.295,177.389,261.517,178.092,261.73,178.772z"/>
							<path id="XMLID_227_" style="fill:#EAD1B7;" d="M262.447,181.051c-0.217-0.69-0.461-1.466-0.717-2.279
								C261.953,179.479,262.192,180.239,262.447,181.051z"/>
							<path id="XMLID_226_" style="fill:#EAD1B7;" d="M260.897,176.124c-0.352-1.118-0.645-2.05-0.887-2.819
								C260.279,174.158,260.583,175.127,260.897,176.124z"/>
							<path id="XMLID_225_" style="fill:#EAD1B7;" d="M261.075,176.689c-0.06-0.189-0.119-0.378-0.178-0.566
								C260.955,176.309,261.014,176.494,261.075,176.689z"/>
							<path id="XMLID_224_" style="fill:#EAD1B7;" d="M263.188,183.403c-0.102-0.325-0.262-0.832-0.461-1.466
								C262.875,182.409,263.028,182.897,263.188,183.403z"/>
							<path id="XMLID_223_" style="fill:#EAD1B7;" d="M262.726,181.937c-0.094-0.299-0.189-0.6-0.279-0.886
								C262.547,181.366,262.64,181.664,262.726,181.937z"/>
							<path id="XMLID_222_" style="fill:#EAD1B7;" d="M263.306,183.779c-0.041-0.129-0.078-0.249-0.118-0.376
								C263.249,183.598,263.29,183.73,263.306,183.779z"/>
							<path id="XMLID_221_" style="fill:#EAD1B7;" d="M263.313,183.802c0,0-0.003-0.008-0.007-0.023
								C263.308,183.787,263.31,183.794,263.313,183.802z"/>
							<path id="XMLID_220_" style="fill:#EAD1B7;" d="M260.01,173.305c-0.019-0.062-0.039-0.125-0.058-0.185
								C259.97,173.179,259.991,173.243,260.01,173.305z"/>
							<path id="XMLID_219_" style="fill:#EAD1B7;" d="M259.552,171.849c-0.032-0.1-0.063-0.199-0.091-0.289
								C259.49,171.652,259.52,171.748,259.552,171.849z"/>
							<path id="XMLID_218_" style="fill:#C69C7F;" d="M266.519,191.455c-1.265-2.407-2.356-4.952-3.206-7.653
								c0,0-5.445,2.149-11.424,7.141c0,0,0.833,2.644,2.956,6.59c2.222-0.719,4.425-1.498,6.513-2.538
								C263.231,194.061,265.001,192.886,266.519,191.455z"/>
							<path id="XMLID_217_" style="fill:#EAD1B7;" d="M259.141,170.544c-0.023-0.072-0.041-0.129-0.054-0.172
								C259.101,170.415,259.117,170.467,259.141,170.544z"/>
							<path id="XMLID_216_" style="fill:#EAD1B7;" d="M259.087,170.372C259.051,170.257,259.053,170.263,259.087,170.372
								L259.087,170.372z"/>
							<path id="XMLID_192_" style="fill:#DDB897;" d="M322.946,232.244l-1.468-3.187c-1.057-2.296-3.534-3.586-6.021-3.138
								l-7.658,1.614c0,0-28.299-11.376-41.281-36.079c-1.517,1.431-3.287,2.606-5.16,3.539c-2.088,1.04-4.291,1.82-6.513,2.538
								c5.774,10.731,21.166,31.171,55.887,34.854l2.291,0.649c2.292,1.758,0.237,5.648,0.237,5.648s5.9-1.368,9.023-3.658
								C323.144,234.393,323.392,233.212,322.946,232.244z"/>
							<path id="XMLID_214_" style="fill:#EAD1B7;" d="M259.15,170.572c-0.003-0.008-0.006-0.02-0.009-0.028
								C259.145,170.554,259.147,170.562,259.15,170.572z"/>
							<path id="XMLID_213_" style="fill:#EAD1B7;" d="M259.652,172.167c-0.035-0.11-0.068-0.216-0.1-0.319
								C259.584,171.95,259.617,172.055,259.652,172.167z"/>
							<path id="XMLID_212_" style="fill:#EAD1B7;" d="M259.952,173.119c-0.112-0.355-0.211-0.669-0.3-0.952
								C259.745,172.461,259.845,172.779,259.952,173.119z"/>
							<path id="XMLID_211_" style="fill:#EAD1B7;" d="M259.461,171.56c-0.134-0.427-0.241-0.767-0.311-0.988
								C259.215,170.778,259.317,171.102,259.461,171.56z"/>
						</g>
						<g id="XMLID_193_">
							<path id="XMLID_247_" style="fill:#DD5900;" d="M267.576,186.646c-1.174-4.242-2.73-8.378-4.642-12.342
								c-1.111-2.304-3.315-6.829-5.147-8.615c-1.832-1.786-3.379-0.792-5.932-0.626c0,0-6.102,0.488-6.505,8.639
								c-0.38,7.691,2.738,15.078,5.742,22.167c0.061,0.143,0.124,0.29,0.239,0.394c0.402,0.363,1.007-0.028,1.471-0.306
								c0.857-0.513,1.889-0.612,2.873-0.783c3.733-0.651,7.136-2.491,10.463-4.303l1.558-0.767
								c0.676-0.333,0.961-1.146,0.642-1.828L267.576,186.646z"/>
						</g>
					</g>
					<g id="XMLID_116_">
						<path id="XMLID_151_" style="fill:#C69C7F;" d="M316.562,230.794c0,0,0.392,0.377,0.718,1.126
							c0.151,0.374,0.309,0.826,0.391,1.327c0.039,0.256,0.076,0.497,0.089,0.786c0,0.26,0.017,0.509,0.003,0.785
							c-0.034,0.559-0.133,1.099-0.319,1.589c-0.178,0.493-0.485,0.9-0.781,1.193c-0.3,0.298-0.634,0.435-0.855,0.51
							c-0.229,0.07-0.365,0.062-0.365,0.062s0.516-0.215,0.93-0.826c0.437-0.59,0.657-1.575,0.706-2.545
							c0.022-0.244,0.013-0.516,0.021-0.769c-0.009-0.243-0.018-0.483-0.026-0.714c-0.034-0.469-0.074-0.911-0.16-1.282
							C316.765,231.289,316.562,230.794,316.562,230.794z"/>
						<path id="XMLID_144_" style="fill:#C69C7F;" d="M319.346,229.704c0,0,0.421,0.337,0.867,1.018
							c0.211,0.344,0.449,0.767,0.591,1.27c0.149,0.498,0.203,1.076,0.144,1.63c-0.044,0.508-0.16,1.087-0.327,1.56
							c-0.163,0.489-0.413,0.91-0.655,1.243c-0.243,0.336-0.528,0.545-0.722,0.677c-0.202,0.128-0.335,0.159-0.335,0.159
							s0.415-0.353,0.73-1.038c0.172-0.334,0.295-0.757,0.405-1.211c0.101-0.47,0.191-0.923,0.225-1.459
							c0.118-0.964-0.113-1.944-0.396-2.657C319.595,230.181,319.346,229.704,319.346,229.704z"/>
					</g>
				</g>
				<g id="XMLID_39_">
					<g id="XMLID_121_">
						<path id="XMLID_263_" style="fill:#1F373A;" d="M245.074,238.531c34.591,11.789,59.981,28.77,60.043,28.829
							c0,0,10.976,4.411,4.667,16.86c-4.199,8.285-13.84,34.676-18.961,42.425h-16.929c5.457-19.775,8.25-37.993,26.754-50.974
							c-17.269,0.61-36.557-4.185-49.287-8.232c-11.388-3.62-18.9-8.058-19.726-19.979c-0.302-4.354-0.635-14.734,1.589-19.863
							l0.601-5.069"/>
					</g>
					<g id="XMLID_49_">
						<path id="XMLID_120_" style="fill:#DDB897;" d="M270.721,340.601l5.071-13.956h11.444l-3.653,9.54
							c0,0,5.296,12.425-12.861,11.14V340.601z"/>
						<g id="XMLID_115_">
							<path id="XMLID_259_" style="fill:#DD5900;" d="M285.598,354.581c1.894,0.219,3.76,0.633,5.647,0.907
								c8.497,1.233,17.377-0.527,24.817-4.8c-0.075-0.088-0.135-0.184-0.223-0.266c-2.403-2.23-5.723-3.553-9.001-4.179
								c-2.115-0.404-4.296-0.583-6.299-1.375c-2.454-0.97-5.828-2.786-7.776-4.565c-1.465-1.337-1.826-2.433-3.028-4.011
								c-3.478-4.565-6.258-2.437-6.77,2.687c-0.512,5.124-3.416,4.782-8.028,5.466c-4.611,0.683-4.217-3.845-4.217-3.845
								c-0.726-0.819-2.15-0.642-2.929,0.126c-0.779,0.768-1.035,1.922-1.087,3.015c-0.069,1.462,0.16,2.941-0.095,4.382
								c-0.201,1.133-0.689,2.17-1.249,3.182c2.366,1.292,4.951,2.183,7.614,2.603C277.14,354.568,281.409,354.096,285.598,354.581z
								"/>
						</g>
						<g id="XMLID_50_">
							<g id="XMLID_112_">
								<path id="XMLID_245_" style="fill:#D1DADB;" d="M265.361,351.307c-0.46,0.83-0.968,1.644-1.413,2.477
									c-0.119,0.223-0.237,0.48-0.16,0.721c0.061,0.19,0.229,0.323,0.389,0.441c2.093,1.534,4.422,2.581,6.881,3.296
									c0.344-1.504,0.633-3.02,0.884-4.542C269.645,353.229,267.418,352.43,265.361,351.307z"/>
							</g>
							<g id="XMLID_108_">
								<path id="XMLID_243_" style="fill:#D1DADB;" d="M285.598,354.581c-2.457-0.285-4.941-0.243-7.415-0.29
									c0,1.729,0,3.458,0,5.187c2.633,0.209,5.306,0.21,7.92,0.147c-0.034-1.661-0.068-3.321-0.102-4.982
									C285.867,354.626,285.733,354.597,285.598,354.581z"/>
							</g>
							<g id="XMLID_105_">
								<path id="XMLID_241_" style="fill:#FFFFFF;" d="M272.975,353.91c-0.347-0.055-0.689-0.139-1.033-0.21
									c-0.252,1.522-0.541,3.037-0.884,4.542c2.288,0.665,4.688,1.043,7.126,1.236c0-1.729,0-3.458,0-5.187
									C276.438,354.259,274.697,354.182,272.975,353.91z"/>
							</g>
							<g id="XMLID_101_">
								<path id="XMLID_239_" style="fill:#D1DADB;" d="M293.188,355.685c0.029,1.228,0.041,2.457,0.034,3.685
									c1.857-0.081,3.713-0.169,5.57-0.262c0.731-0.036,1.463-0.072,2.195-0.113c-0.113-1.114-0.227-2.228-0.34-3.341
									C298.169,355.914,295.67,355.912,293.188,355.685z"/>
							</g>
							<g id="XMLID_98_">
								<path id="XMLID_234_" style="fill:#FFFFFF;" d="M293.188,355.685c-0.648-0.059-1.298-0.103-1.943-0.196
									c-1.753-0.254-3.489-0.617-5.244-0.845c0.034,1.661,0.068,3.321,0.102,4.982c0.382-0.009,0.763-0.019,1.142-0.03
									c1.993-0.06,3.985-0.138,5.976-0.225C293.229,358.141,293.217,356.913,293.188,355.685z"/>
							</g>
							<g id="XMLID_86_">
								<path id="XMLID_232_" style="fill:#D1DADB;" d="M316.063,350.689c-2.565,1.473-5.308,2.624-8.14,3.48
									c0.467,1.195,0.854,2.42,1.194,3.658c2.128-0.6,4.181-1.462,6.095-2.569C316.863,354.302,317.257,352.096,316.063,350.689z"
									/>
							</g>
							<g id="XMLID_53_">
								<path id="XMLID_189_" style="fill:#FFFFFF;" d="M300.647,355.654c0.113,1.114,0.227,2.228,0.34,3.341
									c2.082-0.116,4.162-0.284,6.204-0.696c0.648-0.131,1.29-0.292,1.927-0.472c-0.34-1.238-0.726-2.463-1.194-3.658
									C305.549,354.887,303.113,355.395,300.647,355.654z"/>
							</g>
						</g>
					</g>
				</g>
				<g id="XMLID_133_">
					
						<ellipse id="XMLID_54_" transform="matrix(0.2147 -0.9767 0.9767 0.2147 -241.425 453.0663)" style="fill:#FFFFFF;" cx="161.019" cy="376.659" rx="27.008" ry="27.008"/>
					<path id="XMLID_149_" style="fill:#4EA8A8;" d="M171.426,379.375c7.045,0.49,14.337-0.275,20.811-3.246
						c7.026-3.224,10.312-8.697,14.211-15.196c1.519-2.532-1.396-4.698-2.906-2.182c-3.585,5.975-7.667,11.066-14.306,13.711
						c-5.727,2.282-11.908,2.768-18.012,2.344C168.291,374.601,168.518,379.173,171.426,379.375L171.426,379.375z"/>
					<circle id="XMLID_56_" style="fill:#284549;" cx="161.018" cy="376.659" r="11.702"/>
					<circle id="XMLID_165_" style="fill:#4EA8A8;" cx="161.018" cy="376.659" r="6.31"/>
				</g>
				<g id="XMLID_146_">
					<circle id="XMLID_156_" style="fill:#FFFFFF;" cx="373.403" cy="375.405" r="25.643"/>
					
						<ellipse id="XMLID_155_" transform="matrix(0.2287 -0.9735 0.9735 0.2287 -77.4397 653.0737)" style="fill:#284549;" cx="373.403" cy="375.405" rx="11.111" ry="11.111"/>
				</g>
				<path id="XMLID_4_" style="fill:#3A7377;" d="M372.864,323.921l-33.626,16.411l8.274-29.99l-11.319-61.989
					c0,0,8.234,21.333,17.853,38.259c6.482,11.406,11.297,23.912,23.413,29.949c2.286,1.139,5.016,2.516,5.859,5.642
					c2.694,9.995,0,0,0,0L372.864,323.921z"/>
				<g id="XMLID_3_">
					<g id="XMLID_169_">
						<path id="XMLID_178_" style="fill:#3A7377;" d="M327.994,326.075l5.01,4.261c0,0-4.555,27.59-25.961,37.479h-93.099
							c1.347-1.329,2.609-2.743,3.752-4.251l1.898-1.801l-0.636,0.029c1.225-1.841,2.281-3.807,3.113-5.908
							c5.795-14.633-1.121-32.675-13.444-41.571c-12.323-8.896-28.582-9.736-42.934-5.569
							c-25.522,7.409-46.401,30.543-52.688,57.941l-8.008,0.37c-1.738,0.08-2.892-1.796-2.01-3.296
							c5.639-9.593,7.551-21.239,13.122-30.986c7.881-13.786,22.144-22.39,34.807-31.972c0.358-0.271,0.731-0.564,0.892-0.982
							c0.274-0.709-0.146-1.471-0.426-2.178c-1.467-3.699,1.778-8.379,5.757-8.303l101.549-4.826
							c2.238-0.106,4.073,1.878,3.663,4.199c-0.198,1.12-0.992,2.041-1.996,2.574c-8.241,4.37-37.664,22.461-20.719,50.439
							c16.215,26.774,54.922,16.732,72.24,7.928C311.874,349.651,321.617,343.448,327.994,326.075"/>
					</g>
				</g>
				<g id="XMLID_1_">
					<path id="XMLID_238_" style="fill:#1F373A;" d="M333.004,330.337c0,0,13.405-35.982-6.377-78.34l9.565-3.644
						c0,0,31.883,59.732-8.198,109.767c0,0-3.644,7.549-23.229,9.696C304.765,367.816,322.984,360.853,333.004,330.337z"/>
				</g>
				<path id="XMLID_6_" style="fill:#398E8E;" d="M322.209,371.257c-0.643,0.143-1.206-0.47-1.003-1.097
					c2.272-7.016,13.505-38.454,35.027-47.567c25.278-10.703,46.463,7.32,54.396,20.421c0.881,1.455-0.619,3.149-2.419,2.755
					c-8.898-1.949-28.025-10.196-47.857,1.648C346.105,355.928,340.568,367.18,322.209,371.257z"/>
				<g id="XMLID_5_">
					<g id="XMLID_34_">
						<path id="XMLID_138_" style="fill:#284549;" d="M216.024,253.192c0.238,11.947,8.741,17.172,20.129,20.792
							c12.73,4.047,32.018,8.842,49.287,8.232c-18.504,12.981-21.297,31.199-26.754,50.974h16.929
							c5.12-7.749,22.617-38.007,26.816-46.291c6.31-12.45-4.667-16.86-4.667-16.86c-0.062-0.059-3.95-3.065-31.485-17.209
							l-5.982-2.269l-11.742,2.391l8.412-4.099l1.252-5.684l-37.26-12.376C220.96,230.794,215.823,243.097,216.024,253.192z"/>
					</g>
					<g id="XMLID_38_">
						<path id="XMLID_20_" style="fill:#EAD1B7;" d="M255.514,347.147l5.071-13.956h11.444l-3.653,9.54
							c0,0,5.296,12.425-12.861,11.14V347.147z"/>
						<g id="XMLID_52_">
							<path id="XMLID_231_" style="fill:#EF8E2E;" d="M270.392,361.127c1.894,0.22,3.76,0.633,5.647,0.907
								c8.497,1.233,17.377-0.527,24.817-4.8c-0.075-0.088-0.135-0.184-0.223-0.266c-2.403-2.23-5.723-3.553-9.001-4.179
								c-2.115-0.404-4.296-0.583-6.299-1.375c-2.454-0.97-5.828-2.786-7.776-4.565c-1.465-1.337-1.826-2.433-3.028-4.011
								c-3.478-4.565-6.258-2.437-6.77,2.687c-0.512,5.124-3.416,4.782-8.028,5.466s-4.217-3.845-4.217-3.845
								c-0.726-0.819-2.15-0.642-2.929,0.126c-0.779,0.768-1.035,1.922-1.087,3.015c-0.069,1.462,0.16,2.941-0.095,4.382
								c-0.201,1.133-0.689,2.17-1.249,3.182c2.366,1.292,4.951,2.183,7.614,2.603C261.933,361.113,266.203,360.642,270.392,361.127
								z"/>
						</g>
						<g id="XMLID_84_">
							<g id="XMLID_91_">
								<path id="XMLID_114_" style="fill:#D1DADB;" d="M250.154,357.853c-0.46,0.83-0.968,1.644-1.413,2.477
									c-0.119,0.223-0.238,0.48-0.161,0.721c0.061,0.19,0.228,0.323,0.389,0.441c2.093,1.534,4.422,2.581,6.881,3.296
									c0.344-1.504,0.632-3.02,0.884-4.542C254.439,359.775,252.211,358.975,250.154,357.853z"/>
							</g>
							<g id="XMLID_103_">
								<path id="XMLID_111_" style="fill:#D1DADB;" d="M270.392,361.127c-2.457-0.285-4.941-0.243-7.415-0.29
									c0,1.729,0,3.458,0,5.187c2.633,0.209,5.306,0.21,7.92,0.147c-0.034-1.661-0.068-3.321-0.102-4.982
									C270.66,361.171,270.527,361.143,270.392,361.127z"/>
							</g>
							<g id="XMLID_110_">
								<path id="XMLID_107_" style="fill:#FFFFFF;" d="M257.768,360.456c-0.347-0.055-0.689-0.139-1.033-0.21
									c-0.252,1.522-0.541,3.037-0.884,4.542c2.288,0.665,4.688,1.043,7.126,1.236c0-1.729,0-3.458,0-5.187
									C261.231,360.804,259.491,360.728,257.768,360.456z"/>
							</g>
							<g id="XMLID_117_">
								<path id="XMLID_102_" style="fill:#D1DADB;" d="M277.982,362.23c0.029,1.228,0.041,2.457,0.034,3.685
									c1.857-0.081,3.713-0.169,5.57-0.262c0.731-0.036,1.463-0.072,2.195-0.113c-0.113-1.114-0.227-2.228-0.34-3.341
									C282.962,362.459,280.464,362.457,277.982,362.23z"/>
							</g>
							<g id="XMLID_124_">
								<path id="XMLID_96_" style="fill:#FFFFFF;" d="M277.982,362.23c-0.648-0.059-1.298-0.102-1.943-0.196
									c-1.753-0.254-3.489-0.617-5.244-0.845c0.034,1.661,0.068,3.321,0.102,4.982c0.382-0.009,0.763-0.019,1.142-0.03
									c1.993-0.061,3.985-0.138,5.976-0.225C278.022,364.687,278.01,363.458,277.982,362.23z"/>
							</g>
							<g id="XMLID_131_">
								<path id="XMLID_81_" style="fill:#D1DADB;" d="M300.856,357.234c-2.565,1.473-5.308,2.624-8.14,3.48
									c0.468,1.195,0.854,2.42,1.194,3.658c2.128-0.6,4.181-1.462,6.095-2.57C301.656,360.848,302.05,358.641,300.856,357.234z"/>
							</g>
							<g id="XMLID_132_">
								<path id="XMLID_79_" style="fill:#FFFFFF;" d="M285.44,362.199c0.113,1.114,0.227,2.228,0.34,3.341
									c2.082-0.116,4.162-0.284,6.204-0.696c0.648-0.131,1.29-0.293,1.926-0.472c-0.34-1.238-0.726-2.463-1.194-3.658
									C290.342,361.432,287.906,361.94,285.44,362.199z"/>
							</g>
						</g>
					</g>
				</g>
				<g id="XMLID_57_">
					<path id="XMLID_80_" style="fill:#284549;" d="M119.547,317.405c-0.155-0.01-0.313-0.012-0.47-0.02
						c-6.092,8.767-10.719,18.547-13.651,28.813c2.045,1.54,4.573,2.336,5.078,0.495c4.322-15.754,18.391-29.182,18.391-29.182
						C126.056,318.171,122.456,317.596,119.547,317.405z"/>
				</g>
				<g id="XMLID_51_">
					<g id="XMLID_118_">
						<path id="XMLID_104_" style="fill:#DD5900;" d="M110.888,331.628c2.325-4.966,5.06-9.739,8.189-14.242
							c-2.78-0.127-5.753,0.245-7.749,2.15c-1.335,1.274-2.04,3.053-2.707,4.774c-0.766,1.978-1.533,3.956-2.299,5.934
							c0.014,0.004,0.027,0.009,0.041,0.013C107.859,330.753,109.37,331.201,110.888,331.628z"/>
					</g>
					<g id="XMLID_125_">
						<path id="XMLID_100_" style="fill:#EF8E2E;" d="M106.362,330.257c-0.014-0.005-0.027-0.009-0.041-0.013
							c-0.898,2.319-1.797,4.637-2.695,6.956c-0.747,1.928-1.498,4.078-0.754,6.007c0.389,1.01,1.395,2.119,2.553,2.992
							c1.426-4.993,3.26-9.868,5.462-14.571C109.37,331.201,107.859,330.753,106.362,330.257z"/>
					</g>
				</g>
				<path id="XMLID_58_" style="fill:#4EA8A8;" d="M392.527,358.324l-16.094,20.84c-0.189,0.304-0.4,0.592-0.652,0.845l-0.001,0.001
					v0c-0.841,0.841-2.003,1.362-3.287,1.362c-2.567,0-4.649-2.081-4.649-4.649c0-1.451,0.679-2.731,1.72-3.583l-0.014-0.015
					l19.544-17.993C389.095,355.131,391.162,356.561,392.527,358.324z"/>
				<path id="XMLID_159_" style="fill:#EF8E2E;" d="M255.208,161.489"/>
				<path id="XMLID_59_" style="fill:#EF8E2E;" d="M255.208,161.489l-18.005-6.844c0,0-8.728,4.14-10.778,25.822
					c0,0-1.484,1.767-0.4,6.36c0,0-1.422,1.163-1.422,4.358c0,3.195,0,0-1.822,13.443c0,0-1.366,17.04-2.505,20.248
					c-1.139,3.208-2.433,2.981-2.433,5.823c0,4.315,40.376,12.47,40.376,12.47c1.983-28.578,3.664-36.355,3.869-46.76
					c0.119-6.03-0.927-22.65-4.024-32.382"/>
				<path id="XMLID_19_" style="fill:#FFFFFF;" d="M255.208,161.489l-0.771,6.474l-19.007-14.689c0,0-0.113-5.845,7.739-5.371
					l-0.865,2.98L255.208,161.489z"/>
				<path id="XMLID_36_" style="fill:#284549;" d="M313.875,370.418H211.85c-0.751,0-1.366-0.615-1.366-1.366v-1.001
					c0-0.751,0.615-1.366,1.366-1.366h102.025c0.751,0,1.366,0.615,1.366,1.366v1.001
					C315.241,369.803,314.626,370.418,313.875,370.418z"/>
				<path id="XMLID_126_" style="fill:#E1E5E5;" d="M242.304,150.884l-1.547-1.253c0,0,0.526-0.407,2.036-0.431L242.304,150.884z"/>
				<path id="XMLID_161_" style="fill:#FFFFFF;" d="M255.208,161.489l3.835,5.843v-1.598c0-0.851-0.117-1.695-0.346-2.51
					c-0.227-0.807-0.634-1.554-1.127-2.232l-1.604-2.206L255.208,161.489z"/>
				<path id="XMLID_176_" style="fill:#3A7377;" d="M345.458,214.116c-3.217,0.648-6.711,2.021-9.266,4.859
					c-5.253,5.837-10.248,6.604-14.347,8.882c-0.041,0.023-0.081,0.046-0.121,0.069c-2.472,1.426-3.395,4.545-2.278,7.171
					l7.182,16.9l9.565-3.644c0,0-4.555-7.738-4.555-12.525c0-2.546,4.947-0.669,6.558,0.009c0.391,0.165,0.791,0.329,1.191,0.472
					c2.56,0.918,4.539,1.372,7.022,1.57C343.593,227.268,344.451,218.855,345.458,214.116z"/>
				<g id="XMLID_180_">
					<g id="XMLID_62_">
						<path id="XMLID_97_" style="fill:#1F373A;" d="M246.29,141.115c0.093,1.759-0.152,3.878-1.279,5.232
							c-0.553-0.33,0,0-1.246-1.943c-0.407,0.357-0.815,0.715-1.222,1.072c-0.079-0.537-0.159-1.073-0.238-1.61
							c-0.505,0.27-1.01,0.539-1.514,0.809c0.342-3.294-0.265-6.682-1.729-9.653l2.872-1.276L246.29,141.115z"/>
					</g>
					<path id="XMLID_153_" style="fill:none;" d="M258.787,116.724c-1.674,0.242-3.287,0.893-4.714,1.851
						C254.561,118.275,256.334,117.262,258.787,116.724z"/>
					<path id="XMLID_154_" style="fill:#3A7377;" d="M254.073,118.575c-0.089,0.054-0.138,0.087-0.138,0.087
						C253.98,118.631,254.028,118.605,254.073,118.575z"/>
					<path id="XMLID_128_" style="fill:#284549;" d="M276.146,117.836c-4.465-6.857-9.908-5.852-13.6-5.042
						c0.975-0.141,1.969,0.002,2.957,0.158c6.308,0.998,6.632,6.634,6.632,6.634S274.625,119.412,276.146,117.836"/>
					<g id="XMLID_148_">
						<path id="XMLID_163_" style="fill:#DDB897;" d="M242.303,150.884c0,0,7.336,6.029,12.904,10.605l0.23-0.822l-12.745-11.127
							L242.303,150.884z"/>
						<path id="XMLID_183_" style="fill:#EAD1B7;" d="M259.043,147.768c0,0-6.782,0.337-14.32-4.935l-0.421,1.162l-1.609,5.545
							l12.745,11.127l3.399-12.125L259.043,147.768z"/>
					</g>
					<g id="XMLID_37_">
						<path id="XMLID_16_" style="fill:#EAD1B7;" d="M239.202,122.402c0,0-0.478,18.507,8.094,22.403
							c8.572,3.896,10.575,4.675,16.976,2.922c6.401-1.753,6.596-13.052,7.375-22.013c0.779-8.961-2.254-21.624-16.225-21.429
							C255.422,104.285,241.433,102.337,239.202,122.402z"/>
						<g id="XMLID_35_">
							<g id="XMLID_92_">
								<path id="XMLID_258_" style="fill:#4EA8A8;" d="M262.118,128.696c-0.063-0.011-0.124-0.032-0.189-0.04
									c-2.338-0.295-4.425,1.372-6.69,2.022c-3.11,0.892-6.519-0.216-9.119-2.142c-2.6-1.926-4.542-4.588-6.442-7.207l0.324,6.566
									c0,0,1.877-2.256,2.199,11.32c0.034,1.454,1.055,2.695,2.287,3.721c-0.753-0.587,7.894,5.8,16.482,5.637
									C263.793,138.301,263.258,132.18,262.118,128.696z"/>
							</g>
							<g id="XMLID_150_">
								<path id="XMLID_264_" style="fill:#398E8E;" d="M271.423,129.233c-2.04,0.968-4.396,1.112-6.537,0.393
									c-0.924-0.311-1.811-0.766-2.768-0.93c1.14,3.484,1.675,9.605-1.147,19.878c1.107-0.021,2.213-0.137,3.298-0.405
									C271.756,146.319,271.423,129.233,271.423,129.233z"/>
							</g>
						</g>
						<path id="XMLID_31_" style="fill:#EAD1B7;" d="M239.198,126.253c0,0-5.733-7.088-6.122,0c-0.39,7.088,6.73,11.415,7.748,8.605
							L239.198,126.253z"/>
						<g id="XMLID_127_">
							<path id="XMLID_270_" style="fill:#1F373A;" d="M237.064,123.91c-0.377,1.142,0.595,2.297,1.222,3.323
								c1.455,2.377,2.876,5.086,3.786,7.721c0.42-2.324,0.001-4.929-0.783-7.156c0.62,0.326,1.119,0.875,1.385,1.523
								c0.931-1.942-0.501-4.36,0.277-6.368c0.644-1.661,2.531-2.422,3.764-3.708c0.797-0.83,1.328-1.912,1.498-3.051
								C248.214,116.195,239.583,116.284,237.064,123.91z"/>
						</g>
						<g id="XMLID_157_">
							<path id="XMLID_271_" style="fill:#1F373A;" d="M254.437,114.924c2.001,0.489,3.891,1.43,5.487,2.731
								c0.292-0.413,0.448-0.92,0.438-1.425c1.439,1.536,3.347,2.627,5.401,3.087c-0.427-0.427-0.681-1.022-0.695-1.626
								c2.319,1.347,6.103,5.278,8.781,5.411c-0.903-9.448-4.909-11.103-8.478-12.938c-3.569-1.835-7.461-1.654-11.452-1.234"/>
						</g>
						<g id="XMLID_134_">
							<path id="XMLID_166_" style="fill:#EF8E2E;" d="M241.607,101.947c-10.364,7.597-7.614,21.546-7.614,21.546
								c1.893-0.857,2.948,0.714,2.948,0.714c6.094-10.566,15.401-13.552,22.668-13.97c-1.336-5.242-3.013-9.131-4.548-11.927
								C250.506,97.834,245.685,98.958,241.607,101.947z"/>
							<path id="XMLID_170_" style="fill:#DD5900;" d="M270.478,111.298c-2.009-7.681-8.394-12.254-15.417-12.988
								c1.535,2.796,3.212,6.685,4.548,11.927C265.779,109.883,270.478,111.298,270.478,111.298z"/>
						</g>
						<path id="XMLID_158_" style="fill:#FFFFFF;" d="M276.146,117.836c2.04-2.981-5.668-6.538-5.668-6.538
							c-22.208-6.429-31.281,9.409-31.281,9.409c3.943,1.427,11.748-3.369,15.905-6.24c0,0,0.056-0.037,0.157-0.099
							c1.627-1.092,3.467-1.835,5.376-2.111C264.845,111.333,270.804,111.654,276.146,117.836z"/>
						<g id="XMLID_129_">
							<path id="XMLID_160_" style="fill:#DDB897;" d="M233.994,126.49c0,0,0.035-0.145,0.165-0.378
								c0.069-0.114,0.163-0.247,0.3-0.387c0.141-0.135,0.342-0.272,0.613-0.31c0.271-0.03,0.565,0.042,0.819,0.187
								c0.254,0.147,0.482,0.337,0.665,0.568c0.392,0.446,0.678,0.985,0.937,1.525c0.999,2.192,1.135,4.573,1.135,4.573
								s-0.268-0.534-0.583-1.348c-0.138-0.414-0.374-0.868-0.556-1.377c-0.086-0.257-0.213-0.505-0.316-0.767
								c-0.113-0.256-0.203-0.533-0.336-0.78c-0.123-0.252-0.231-0.518-0.364-0.755c-0.15-0.221-0.25-0.488-0.411-0.674
								c-0.148-0.209-0.292-0.39-0.457-0.526c-0.162-0.133-0.334-0.206-0.503-0.222c-0.168,0.001-0.334,0.045-0.481,0.12
								c-0.142,0.082-0.26,0.174-0.351,0.259C234.087,126.371,233.994,126.49,233.994,126.49z"/>
							<path id="XMLID_164_" style="fill:#DDB897;" d="M237.893,129.562c0,0-0.192,0.143-0.379,0.361
								c-0.193,0.218-0.363,0.518-0.51,0.845c-0.145,0.326-0.294,0.687-0.41,0.979c-0.113,0.29-0.233,0.501-0.233,0.501
								s-0.03-0.052-0.063-0.146c-0.022-0.093-0.097-0.231-0.108-0.397c-0.054-0.331-0.045-0.804,0.159-1.241
								c0.186-0.446,0.605-0.783,0.954-0.887C237.657,129.467,237.893,129.562,237.893,129.562z"/>
						</g>
					</g>
				</g>
				<g id="XMLID_182_">
					<path id="XMLID_191_" style="fill:#284549;" d="M351.894,214.362c-1.586-0.407-3.924-0.752-6.436-0.246
						c-1.007,4.739-1.865,13.152,0.95,23.762c2.494,0.198,4.822,0.148,6.215,0.082C348.859,229.881,350.943,218.479,351.894,214.362
						z"/>
					<path id="XMLID_194_" style="fill:#1F373A;" d="M354.045,237.662c-2.913-9.571-1.68-16.907-0.077-22.58
						c-0.002-0.004-0.013-0.027-0.013-0.027s-0.79-0.366-2.061-0.693c-0.952,4.117-3.035,15.518,0.729,23.599
						c0.833-0.039,1.332-0.084,1.332-0.084C353.99,237.805,354.012,237.734,354.045,237.662z"/>
				</g>
				<g id="XMLID_172_">
					<path id="XMLID_177_" style="fill:#DD5900;" d="M354.602,216.427c-0.342-0.805-0.604-1.288-0.633-1.346
						c-1.603,5.673-2.836,13.01,0.077,22.58c0.193-0.416,0.341-0.823,0.508-1.233C352.105,227.076,353.739,219.401,354.602,216.427z
						"/>
					<path id="XMLID_206_" style="fill:#EF8E2E;" d="M354.602,216.427c-0.863,2.973-2.497,10.649-0.049,20.001
						C358.312,227.192,355.88,219.434,354.602,216.427z"/>
				</g>
				<g id="XMLID_8_">
					<g id="XMLID_152_">
						<g id="XMLID_77_">
							<g id="XMLID_87_">
								<path id="XMLID_285_" style="fill:#DD5900;" d="M206.05,183.374c0-2.22-1.8-4.021-4.02-4.021h-74.854
									c-2.22,0-4.021,1.8-4.021,4.021v16.095h82.894V183.374z"/>
							</g>
							<g id="XMLID_136_">
								<path id="XMLID_277_" style="fill:#EF8E2E;" d="M123.156,199.469v58.758c0,2.22,1.8,4.02,4.021,4.02h74.854
									c2.22,0,4.02-1.8,4.02-4.02v-58.758H123.156z"/>
							</g>
						</g>
						<g id="XMLID_15_">
							<rect id="XMLID_14_" x="148.197" y="193.424" style="fill:#1F373A;" width="4.637" height="12.432"/>
							<rect id="XMLID_139_" x="176.371" y="193.424" style="fill:#1F373A;" width="4.637" height="12.432"/>
						</g>
					</g>
					<g id="XMLID_167_">
						<path id="XMLID_64_" style="fill:#1F373A;" d="M173.592,262.247h-2.78v-3.402c0-0.562,0.455-1.017,1.017-1.017h0.745
							c0.562,0,1.017,0.455,1.017,1.017V262.247z"/>
						<g id="XMLID_85_">
							<path id="XMLID_94_" style="fill:#1F373A;" d="M122.204,225.305c-0.358-0.857-0.914-2.866-0.35-3.607
								c0.207-0.272,0.618-0.372,1.221-0.293c0.028,0.004,0.052,0.011,0.08,0.014v-1.268c-1.283-0.135-1.969,0.341-2.305,0.781
								c-1.155,1.516,0.048,4.521,0.204,4.892c7.838,16.051,28.175,28.752,55.113,36.457l2.345-0.034
								C151.942,254.648,129.859,240.976,122.204,225.305z"/>
						</g>
					</g>
					<g id="XMLID_199_">
						<path id="XMLID_237_" style="fill:#1F373A;" d="M155.613,262.247h2.78v-3.402c0-0.562-0.455-1.017-1.017-1.017h-0.745
							c-0.562,0-1.017,0.455-1.017,1.017V262.247z"/>
						<g id="XMLID_209_">
							<path id="XMLID_229_" style="fill:#1F373A;" d="M207.001,225.305c0.358-0.857,0.914-2.866,0.35-3.607
								c-0.206-0.272-0.618-0.372-1.221-0.293c-0.028,0.004-0.052,0.011-0.079,0.014v-1.268c1.283-0.135,1.969,0.341,2.305,0.781
								c1.155,1.516-0.047,4.521-0.204,4.892c-7.838,16.051-28.175,28.752-55.113,36.457l-2.345-0.034
								C177.263,254.648,199.346,240.976,207.001,225.305z"/>
						</g>
					</g>
				</g>
				<path id="XMLID_236_" style="fill:#284549;" d="M110.099,366.841l5.444-0.279c10.02-54.311,67.27-60.232,67.27-60.232
					C127.865,307.224,113.178,353.582,110.099,366.841z"/>
				<g id="XMLID_18_">
					<g id="XMLID_9_">
						<g id="XMLID_11_">
							<path id="XMLID_273_" style="fill:#398E8E;" d="M208.626,314.313c-12.323-8.896-28.582-9.736-42.934-5.569
								c-16.086,4.67-30.323,15.589-40.229,29.883c10.696-2.227,42.155-8.206,69.99-7.835c0,0,15.941-0.455,9.109,13.664
								c-3.174,6.56-6.938,13.217-10.058,18.466l24.452-1.129c1.225-1.841,2.281-3.807,3.113-5.908
								C227.866,341.252,220.949,323.21,208.626,314.313z"/>
						</g>
						<g id="XMLID_12_">
							<path id="XMLID_272_" style="fill:#4EA8A8;" d="M195.454,330.792c-27.836-0.371-59.294,5.608-69.99,7.835
								c-5.811,8.385-10.135,17.928-12.46,28.058l81.501-3.763c3.121-5.249,6.884-11.906,10.058-18.466
								C211.395,330.337,195.454,330.792,195.454,330.792z"/>
						</g>
					</g>
					<g id="XMLID_90_">
						<path id="XMLID_168_" style="fill:#1F373A;" d="M142.729,343.148c0,0,0.677-0.139,1.868-0.337
							c1.193-0.178,2.894-0.485,4.948-0.728c2.053-0.246,4.449-0.556,7.024-0.786c2.574-0.243,5.326-0.436,8.079-0.596
							c1.378-0.061,2.755-0.122,4.112-0.182c1.356-0.069,2.693-0.068,3.985-0.103c2.586-0.048,5.001-0.003,7.069,0.029
							c2.068,0.018,3.792,0.145,4.997,0.197c1.205,0.079,1.894,0.123,1.894,0.123s-0.688,0.052-1.893,0.142
							c-1.203,0.074-2.922,0.179-4.985,0.306c-4.12,0.232-9.612,0.541-15.105,0.851c-5.494,0.284-10.989,0.568-15.11,0.782
							c-2.064,0.095-3.785,0.173-4.989,0.229C143.418,343.121,142.729,343.148,142.729,343.148z"/>
						<path id="XMLID_175_" style="fill:#1F373A;" d="M142.646,347.39c0,0,0.677-0.139,1.868-0.337
							c1.193-0.178,2.894-0.485,4.948-0.728c2.053-0.246,4.449-0.556,7.024-0.786c2.574-0.243,5.326-0.436,8.079-0.596
							c1.378-0.061,2.755-0.122,4.112-0.182c1.356-0.069,2.693-0.068,3.985-0.103c2.585-0.048,5.001-0.003,7.069,0.029
							c2.068,0.018,3.792,0.145,4.997,0.197c1.205,0.079,1.894,0.123,1.894,0.123s-0.688,0.052-1.893,0.142
							c-1.203,0.074-2.922,0.18-4.985,0.306c-4.119,0.232-9.612,0.541-15.105,0.851c-5.494,0.284-10.989,0.568-15.11,0.782
							c-2.064,0.095-3.785,0.173-4.989,0.229C143.335,347.364,142.646,347.39,142.646,347.39z"/>
						<path id="XMLID_181_" style="fill:#1F373A;" d="M142.557,351.88c0,0,0.677-0.139,1.868-0.337
							c1.193-0.178,2.894-0.485,4.948-0.728c2.053-0.246,4.449-0.556,7.024-0.786c2.574-0.243,5.326-0.436,8.079-0.596
							c1.378-0.061,2.755-0.122,4.112-0.182c1.356-0.069,2.693-0.068,3.985-0.103c2.586-0.048,5-0.003,7.069,0.029
							c2.068,0.018,3.792,0.144,4.997,0.197c1.205,0.079,1.894,0.124,1.894,0.124s-0.688,0.052-1.893,0.142
							c-1.203,0.074-2.922,0.18-4.985,0.306c-4.119,0.232-9.612,0.541-15.105,0.851c-5.494,0.284-10.989,0.568-15.11,0.782
							c-2.064,0.094-3.785,0.173-4.989,0.228C143.247,351.853,142.557,351.88,142.557,351.88z"/>
						<path id="XMLID_187_" style="fill:#1F373A;" d="M142.456,357.064c0,0,0.677-0.139,1.868-0.337
							c1.193-0.178,2.894-0.485,4.948-0.728c2.053-0.246,4.449-0.556,7.024-0.786c2.574-0.243,5.326-0.436,8.079-0.596
							c1.378-0.061,2.755-0.122,4.112-0.182c1.356-0.069,2.693-0.068,3.985-0.103c2.585-0.048,5-0.003,7.069,0.029
							c2.068,0.018,3.792,0.144,4.997,0.197c1.205,0.079,1.894,0.124,1.894,0.124s-0.688,0.052-1.893,0.142
							c-1.203,0.074-2.922,0.18-4.985,0.306c-4.12,0.232-9.612,0.541-15.105,0.851c-5.494,0.284-10.989,0.569-15.11,0.782
							c-2.064,0.095-3.785,0.173-4.989,0.228C143.145,357.037,142.456,357.064,142.456,357.064z"/>
					</g>
				</g>
				<path id="XMLID_7_" style="fill:#284549;" d="M321.233,237.133l-20.751,4.501c-2.708,0.65-5.329-1.573-4.981-4.336
					c0.005-0.035,0.009-0.07,0.014-0.105c0.258-1.833,1.823-3.205,3.668-3.355l20.173-1.254c0,0,2.319-0.25,3.06,0.471
					C323.155,233.778,324.094,236.048,321.233,237.133z"/>
				<g id="XMLID_32_">
					<g id="XMLID_2_">
						<g id="XMLID_130_">
							<path id="XMLID_137_" style="fill:#EAD1B7;" d="M249.411,179.371c-0.2-0.77-0.383-1.478-0.553-2.132
								C249.044,177.955,249.231,178.675,249.411,179.371z"/>
							<path id="XMLID_140_" style="fill:#EAD1B7;" d="M250.016,181.704c-0.183-0.706-0.389-1.501-0.605-2.333
								C249.598,180.094,249.8,180.872,250.016,181.704z"/>
							<path id="XMLID_141_" style="fill:#EAD1B7;" d="M248.708,176.66c-0.297-1.145-0.544-2.099-0.748-2.886
								C248.187,174.648,248.444,175.639,248.708,176.66z"/>
							<path id="XMLID_142_" style="fill:#EAD1B7;" d="M248.858,177.239c-0.05-0.194-0.1-0.387-0.15-0.579
								C248.757,176.849,248.807,177.039,248.858,177.239z"/>
							<path id="XMLID_143_" style="fill:#EAD1B7;" d="M250.64,184.112c-0.086-0.333-0.221-0.852-0.389-1.501
								C250.376,183.094,250.506,183.594,250.64,184.112z"/>
							<path id="XMLID_145_" style="fill:#EAD1B7;" d="M250.251,182.611c-0.079-0.307-0.159-0.614-0.235-0.907
								C250.099,182.026,250.178,182.331,250.251,182.611z"/>
							<path id="XMLID_147_" style="fill:#EAD1B7;" d="M250.74,184.497c-0.034-0.132-0.066-0.255-0.1-0.385
								C250.691,184.311,250.727,184.447,250.74,184.497z"/>
							<path id="XMLID_195_" style="fill:#EAD1B7;" d="M250.746,184.52c0,0-0.002-0.008-0.006-0.023
								C250.742,184.505,250.744,184.512,250.746,184.52z"/>
							<path id="XMLID_196_" style="fill:#EAD1B7;" d="M247.96,173.774c-0.016-0.063-0.033-0.128-0.049-0.19
								C247.927,173.645,247.944,173.711,247.96,173.774z"/>
							<path id="XMLID_197_" style="fill:#EAD1B7;" d="M247.574,172.283c-0.027-0.103-0.053-0.204-0.077-0.296
								C247.522,172.082,247.547,172.18,247.574,172.283z"/>
							<path id="XMLID_198_" style="fill:#DDB897;" d="M253.58,192.396c-1.15-2.491-2.118-5.111-2.835-7.876
								c0,0-5.597,1.884-11.878,6.604c0,0,0.703,2.707,2.638,6.792c2.276-0.609,4.536-1.281,6.693-2.221
								C250.134,194.852,251.978,193.76,253.58,192.396z"/>
							<path id="XMLID_200_" style="fill:#EAD1B7;" d="M247.227,170.947c-0.019-0.074-0.034-0.132-0.045-0.176
								C247.193,170.815,247.207,170.869,247.227,170.947z"/>
							<path id="XMLID_202_" style="fill:#EAD1B7;" d="M247.182,170.771C247.151,170.654,247.153,170.66,247.182,170.771
								L247.182,170.771z"/>
							<path id="XMLID_203_" style="fill:#EAD1B7;" d="M312.891,234.899l-1.305-3.262c-0.947-2.368-3.375-3.796-5.904-3.473
								l-8.23,1.052c0,0-32.068-11.262-43.872-36.82c-1.603,1.364-3.447,2.456-5.381,3.299c-2.158,0.94-4.417,1.612-6.693,2.221
								c5.263,11.109,19.579,32.498,54.37,38.002c0,0,3.054-3.99,6.988-0.711c2.238,1.866-0.076,6.143-0.076,6.143
								s6.057,0.88,9.791-4.006C313.11,236.649,313.216,235.711,312.891,234.899z"/>
							<path id="XMLID_204_" style="fill:#EAD1B7;" d="M247.235,170.976c-0.002-0.009-0.005-0.021-0.007-0.029
								C247.23,170.957,247.232,170.965,247.235,170.976z"/>
							<path id="XMLID_205_" style="fill:#EAD1B7;" d="M247.658,172.609c-0.029-0.113-0.057-0.221-0.085-0.326
								C247.601,172.387,247.629,172.495,247.658,172.609z"/>
							<path id="XMLID_207_" style="fill:#EAD1B7;" d="M247.911,173.584c-0.094-0.363-0.178-0.685-0.253-0.975
								C247.736,172.91,247.821,173.236,247.911,173.584z"/>
							<path id="XMLID_208_" style="fill:#EAD1B7;" d="M247.497,171.987c-0.113-0.437-0.204-0.786-0.262-1.011
								C247.29,171.187,247.376,171.518,247.497,171.987z"/>
						</g>
						<g id="XMLID_33_">
							<path id="XMLID_266_" style="fill:#DD5900;" d="M254.894,187.605c-0.964-4.334-2.318-8.581-4.039-12.674
								c-1.001-2.379-2.151-4.745-3.905-6.638c-1.753-1.894-4.2-3.28-6.78-3.244c0,0-6.173,0.177-7,8.368
								c-0.78,7.729,1.98,15.332,4.641,22.63c0.053,0.147,0.11,0.299,0.221,0.41c0.386,0.386,1.016,0.024,1.498-0.233
								c0.89-0.473,1.935-0.519,2.935-0.641c3.794-0.463,7.318-2.141,10.764-3.795l1.609-0.693c0.698-0.3,1.028-1.105,0.741-1.809
								L254.894,187.605z"/>
						</g>
					</g>
					<g id="XMLID_10_">
						<path id="XMLID_119_" style="fill:#DDB897;" d="M306.138,233.979c0,0,0.392,0.377,0.718,1.126
							c0.151,0.374,0.31,0.826,0.391,1.327c0.039,0.255,0.076,0.497,0.089,0.786c0,0.26,0.017,0.509,0.003,0.785
							c-0.034,0.559-0.133,1.099-0.319,1.589c-0.178,0.493-0.485,0.9-0.781,1.193c-0.3,0.298-0.634,0.435-0.855,0.511
							c-0.229,0.07-0.365,0.062-0.365,0.062s0.516-0.215,0.93-0.826c0.438-0.59,0.657-1.575,0.706-2.545
							c0.022-0.244,0.013-0.516,0.021-0.769c-0.009-0.243-0.017-0.483-0.026-0.714c-0.034-0.469-0.074-0.911-0.16-1.282
							C306.341,234.475,306.138,233.979,306.138,233.979z"/>
						<path id="XMLID_123_" style="fill:#DDB897;" d="M308.922,232.889c0,0,0.421,0.337,0.867,1.018
							c0.211,0.344,0.449,0.767,0.591,1.27c0.149,0.498,0.202,1.076,0.144,1.63c-0.044,0.508-0.16,1.087-0.327,1.559
							c-0.163,0.489-0.413,0.911-0.655,1.243c-0.243,0.336-0.528,0.545-0.722,0.677c-0.202,0.128-0.335,0.159-0.335,0.159
							s0.415-0.353,0.73-1.039c0.172-0.334,0.295-0.757,0.405-1.211c0.101-0.47,0.191-0.923,0.225-1.459
							c0.118-0.964-0.113-1.944-0.396-2.657C309.171,233.367,308.922,232.889,308.922,232.889z"/>
					</g>
				</g>
				<polygon id="XMLID_22_" style="fill:#4EA8A8;" points="325.717,251.143 336.192,247.271 336.762,248.695 326.489,252.566 				
					"/>
			</g>
		</g>
		<g id="XMLID_65_">
			<path id="XMLID_265_" style="fill:#FFFFFF;" d="M167.392,143.865c-0.933-2.718-5.416-3.591-6.687-1.013
				c-4.212-6.523-15.631-6.087-19.334,0.738c1.363-6.587-4.66-13.095-11.334-13.934c-6.674-0.839-13.252,2.762-17.867,7.655
				c2.003-10.294-7.743-21.097-18.188-20.161c-10.445,0.936-18.115,13.3-14.313,23.074c-3.068-4.293-9.595-5.624-14.099-2.876
				c-1.398,0.853-2.534,2.06-3.366,3.458c-2.62-1.16-5.356-1.862-8.191-1.554c-5.445,0.59-10.303,7.052-7.246,11.597
				c2.227,3.311,6.912,3.575,10.901,3.499c32.61-0.627,65.22-1.253,97.829-1.88c2.873-0.055,5.87-0.141,8.406-1.493
				C166.439,149.622,168.325,146.583,167.392,143.865z"/>
		</g>
		<g id="XMLID_66_">
			<path id="XMLID_261_" style="fill:#FFFFFF;" d="M312.481,187.598c0.69-2.289,4.392-3.153,5.526-1.048
				c0.852-5.225,8.998-7.19,12.137-2.926c-1.299-2.699,0.826-6.039,3.611-7.142c2.785-1.103,5.914-0.611,8.865-0.104
				c-4.123-4.181-2.607-11.98,2.251-15.279c4.858-3.298,11.723-2.486,16.547,0.863c4.824,3.348,7.848,8.774,9.641,14.365
				c-0.295-4.386,2.714-8.78,6.91-10.091c4.196-1.311,9.171,0.589,11.426,4.362c-0.617-2.719,3.878-4.098,5.847-2.123
				c1.663,1.668,1.825,4.204,1.581,6.613c1.889-1.753,4.126-3.1,6.607-3.806c5.136-1.46,11.216,0.201,14.34,4.531
				c3.124,4.331,2.497,11.151-1.785,14.341c-3.085,2.299-7.21,2.467-11.056,2.545c-27.428,0.554-54.855,1.108-82.283,1.663
				c-2.391,0.048-4.885,0.075-7.037-0.967C313.458,192.354,311.791,189.887,312.481,187.598z"/>
		</g>
	</g>
</g>
</svg>
