<?xml version="1.0" encoding="utf-8"?>
<!-- Generator: Adobe Illustrator 27.5.0, SVG Export Plug-In . SVG Version: 6.00 Build 0)  -->
<svg version="1.1" xmlns="http://www.w3.org/2000/svg" xmlns:xlink="http://www.w3.org/1999/xlink" x="0px" y="0px"
	 viewBox="0 0 500 500" style="enable-background:new 0 0 500 500;" xml:space="preserve">
<g id="BACKGROUND">
	<rect style="fill:#FFFFFF;" width="500" height="500"/>
</g>
<g id="OBJECT" xmlns:vectornator="http://vectornator.io">
	<g>
		<path style="fill:#F0D0C7;" d="M58.101,97.152c0,0,26.195-43.267,57.727-43.77c31.532-0.503,52.876,22.64,64.033,58.36
			c11.157,35.72,38.808,27.168,46.085,55.845c7.277,28.677-107.693,69.428-163.479,32.702C6.68,163.562,58.101,97.152,58.101,97.152
			z"/>
		<g>
			<path style="fill:#152D40;" d="M164.036,115.769c0,0,6.214,5.671,11.075,23.765c4.861,18.094,6.481,39.429,14.583,44.83
				c8.102,5.401,19.984-1.89,27.276,7.832c7.292,9.722-5.401,20.524-12.423,22.415c-7.022,1.89-21.605,5.131-35.378-4.051
				C155.397,201.378,164.036,115.769,164.036,115.769z"/>
			<path style="fill:#2867A4;" d="M172.138,211.102H74.382c0,0,1.888-94.791,11.61-98.842c9.722-4.051,26.736-12.153,26.736-12.153
				l28.356,3.508c0,0,18.634,4.594,22.952,12.153c1.11,1.936,2.179,9.131,3.16,18.772c0.705,6.87,1.353,14.988,1.945,23.317
				C170.947,183.459,172.138,211.102,172.138,211.102z"/>
			<path style="fill:#C17638;" d="M116.374,84.172l-0.405,12.963c0,0,11.343,9.317,18.769,8.912
				c7.427-0.405,6.346-2.431,6.346-2.431l0.135-9.047C141.219,94.569,123.395,84.307,116.374,84.172z"/>
			<path style="fill:#E1964F;" d="M155.359,79.618c-0.81,13.773-8.402,17.111-14.883,19.136
				c-6.457,2.017-18.351-3.808-22.645-11.067c-0.008-0.024-0.024-0.049-0.041-0.073c-0.211-0.365-0.413-0.729-0.591-1.102h-0.008
				c-3.573-7.049-2.844-15.037-2.844-15.037s-0.203-4.586,0.032-9.99c0.235-5.404,0.916-11.61,2.666-14.851
				c3.516-6.482,14.113-8.037,18.772-8.037c4.659,0,13.571,3.443,17.216,8.304C156.68,51.765,155.602,75.568,155.359,79.618z"/>
			<path style="fill:#E1964F;" d="M114.449,60.069c0,0-3.646,0.202-5.57,3.95c-1.924,3.747-0.506,12.254,6.178,13.165
				C121.741,78.095,114.449,60.069,114.449,60.069z"/>
			<path style="fill:#151A25;" d="M155.262,48.625c0,0-4.456,1.519-14.381,1.013c-9.925-0.506-14.482-1.418-14.482-1.418
				s0.911,5.671-1.215,10.229c-2.127,4.557-4.456,3.545-5.064,7.089c-0.608,3.545-0.405,5.469-2.228,5.367
				c-1.823-0.101-1.671-8.051-2.785-9.773c-1.114-1.722-4.962,0.76-5.317,1.57c-0.354,0.81-5.367-14.178,4.304-19.394
				c0,0,2.987-7.393,15.849-7.95C142.806,34.801,153.085,39.359,155.262,48.625z"/>
			<path style="fill:#151A25;" d="M127.851,61.824c0,0,1.35-2.363,4.996-2.363s3.983,2.228,5.131,2.025
				c1.148-0.202,0.675-3.916-3.038-4.658C131.227,56.085,127.784,57.841,127.851,61.824z"/>
			<path style="fill:#151A25;" d="M154.463,61.757c0,0-1.154-2.363-4.27-2.363c-3.116,0-3.404,2.228-4.385,2.025
				c-0.981-0.203-0.577-3.916,2.596-4.659C151.578,56.018,154.521,57.773,154.463,61.757z"/>
			<path style="fill:#151A25;" d="M135.21,65.689c0,1.147-0.544,2.076-1.215,2.076c-0.671,0-1.215-0.93-1.215-2.076
				s0.544-2.076,1.215-2.076C134.666,63.613,135.21,64.543,135.21,65.689z"/>
			<path style="fill:#151A25;" d="M149.287,65.588c0,1.147-0.544,2.076-1.215,2.076c-0.671,0-1.215-0.929-1.215-2.076
				c0-1.147,0.544-2.076,1.215-2.076C148.743,63.512,149.287,64.442,149.287,65.588z"/>
			<path style="fill:#B2BFE1;" d="M155.735,70.804c0,0-8.237-3.106-15.258-2.228c-7.021,0.878-19.849,4.523-19.849,4.523
				s-0.473,12.22,6.076,17.419c6.549,5.199,10.06,5.941,15.326,5.401c5.266-0.54,9.925-3.173,11.477-6.819
				C155.06,85.454,156.612,73.302,155.735,70.804z"/>
			<polygon style="fill:#EFF5E1;" points="116.12,66.044 121.488,72.981 120.728,73.589 116.374,67.664 			"/>
			<path style="fill:#EFF5E1;" d="M124.321,87.412c0,0-3.816,1.491-6.49,0.276c-0.008-0.024-0.024-0.049-0.041-0.073
				c-0.211-0.365-0.413-0.729-0.591-1.102c0.243,0.073,3.581,1.094,6.214-0.365L124.321,87.412z"/>
			<path style="fill:#9FAFD3;" d="M123.665,74.652c0,0,11.545-4.051,19.377-4.051c8.169,0,11.68,2.363,11.68,2.363l-0.473,7.224
				c0,0-3.713-3.646-13.706-2.363c-9.992,1.283-14.988,3.511-14.988,3.511L123.665,74.652z"/>
			<path style="fill:#9FAFD3;" d="M126.096,82.686c0,0,21.402-5.536,27.749-1.013l-0.54,3.376c0,0-3.241-3.106-15.056-0.945
				s-11.072,2.16-11.072,2.16L126.096,82.686z"/>
			<path style="fill:#1C3B51;" d="M169.141,157.857c-7.3,3.111-21.624,7.94-40.412,7.94c-27.749,0-40.104-11.14-40.104-11.14
				l5.266-21.065c0,0,20.457,12.558,44.762,10.532c16.706-1.393,24.994-6.522,28.543-9.584
				C167.901,141.411,168.549,149.529,169.141,157.857z"/>
			<path style="fill:#152D40;" d="M112.728,100.105l3.106-7.157c0,0,13.908,9.182,19.174,9.587l0.945,2.431l1.08-2.836
				c0,0,3.241-0.81,4.051-2.025c0.81-1.215,2.025,5.536,2.025,5.536s-1.215,2.836-9.317,2.836
				C125.691,108.477,112.728,100.105,112.728,100.105z"/>
			<path style="fill:#B2BFE1;" d="M135.413,107.937c0,0,9.722,83.381,8.912,102.217l2.836,0.203c0,0-3.241-81.626-10.127-102.488
				L135.413,107.937z"/>
			<g>
				<polygon style="fill:#A9402C;" points="162.351,236.08 123.463,236.08 123.463,161.544 161.676,162.894 				"/>
				<polygon style="fill:#D14F2D;" points="233.816,236.249 161.744,236.249 161.617,162.936 233.816,161.713 				"/>
				<polygon style="fill:#EA6F57;" points="123.463,161.544 161.946,163.569 233.816,161.713 172.276,158.708 				"/>
				<rect x="200.227" y="187.638" style="fill:#A9402C;" width="1.823" height="47.429"/>
				<polygon style="fill:#A9402C;" points="162.824,164.785 201.172,187.605 201.172,189.765 162.959,166.54 				"/>
				<polygon style="fill:#A9402C;" points="233.174,163.839 203.873,186.659 203.873,188.82 233.071,165.595 				"/>
			</g>
			<path style="fill:#152D40;" d="M146.788,224.365c-4.051,7.024-54.549,9.998-71.02-1.345c-7.032-4.837-9.884-18.764-10.573-34.4
				c-0.916-21.032,2.074-45.16,4.091-54.452c3.508-16.204,16.738-22.142,16.738-22.142s0.988,0.624,2.398,2.098
				c3.468,3.63,9.487,12.388,9.487,29.499c0,24.03-2.698,34.838-0.81,39.699c1.888,4.861,5.404,5.128,4.861,9.99
				s30.244-1.077,41.052,6.214C153.812,206.817,150.839,217.349,146.788,224.365z"/>
			<path style="fill:#2867A4;" d="M136.49,220.825c0,0-40.233,7.559-55.627-1.353c-7.527-4.359-12.606-16.852-15.669-30.852
				c-0.916-21.032,2.074-45.16,4.091-54.452c3.508-16.204,16.738-22.142,16.738-22.142s0.988,0.624,2.398,2.098
				c-1.985,1.021-9.066,5.955-14.583,25.95c-6.481,23.495,0.543,65.624,8.102,71.296c7.559,5.671,53.739,1.888,53.739,1.888
				L136.49,220.825z"/>
			<path style="fill:#E1964F;" d="M143.515,205.192c0,0,5.773-1.823,6.887-3.545c1.114-1.722,5.064-5.165,8.608-6.38
				c3.544-1.215,6.38-2.937,8.406-1.924c2.025,1.013-1.62,3.646-4.051,4.152c-2.431,0.506-5.165,2.937-4.557,3.139
				c0.608,0.203,6.785-2.228,11.14-2.734c4.355-0.506,7.697-1.013,11.342,0c3.646,1.013,1.823,3.443-0.101,3.747
				c-1.924,0.304-4.152,0.203-5.671,0.405c-1.519,0.203-3.747,1.519-3.747,1.519s5.064-0.405,8.709,0
				c3.646,0.405,5.165,0.81,5.165,2.127c0,1.317-3.443,1.823-6.38,1.823c-2.937,0-7.393,1.114-7.393,1.114s6.076-0.101,8.912,0.911
				c2.836,1.013,2.329,2.228,0,2.734c-2.329,0.506-4.76-0.304-7.595,0.405c-2.836,0.709-1.215,0.911,0.506,0.911
				c1.722,0,4.557,0.608,5.064,1.418c0.506,0.81-1.62,2.127-7.089,1.722c-5.469-0.405-10.33,1.215-13.976,2.127
				c-3.646,0.911-9.317,1.62-13.064,0.709C140.881,218.661,138.046,211.167,143.515,205.192z"/>
		</g>
	</g>
	<g>
		<path style="fill:#F0D0C7;" d="M291.422,117.234c0,0,6.009-60.43,74.625-38.592c14.402,4.584,43.072-42.337,73.491-21.572
			c30.419,20.765,8.196,83.465-19.336,101.907c-27.532,18.441-46.129-20.475-69.969-9.675c-23.841,10.8-39.957,25.822-51.662,13.532
			C286.866,150.545,291.422,117.234,291.422,117.234z"/>
		<g>
			<path style="fill:#BFBBB8;" d="M438.411,211.687c0.755,3.834-19.569,18.032-60.621,26.117
				c-41.051,8.086-76.523,11.646-88.038,3.163c-3.206-2.362,5.553-12.641,46.604-20.727
				C377.407,212.155,437.656,207.853,438.411,211.687z"/>
			<ellipse style="fill:#152D40;" cx="414.907" cy="195.677" rx="22.348" ry="22.944"/>
			<ellipse style="fill:#2867A4;" cx="419.821" cy="196.273" rx="11.122" ry="13.707"/>
			<path style="fill:#D97938;" d="M332.035,202.696c0,0,12.416,4.814,36.235,1.774c23.819-3.041,23.819-7.095,23.819-7.095
				s-8.362-10.389-22.805-10.136C354.841,187.492,332.035,202.696,332.035,202.696z"/>
			<path style="fill:#AA5D29;" d="M383.727,197.121c0,0,5.321-37.502,12.923-45.863c7.602-8.362-30.913-4.054-30.913-4.054
				l-13.43,49.664L383.727,197.121z"/>
			<path style="fill:#D97938;" d="M390.062,152.018c0,0-13.936,34.714-7.348,46.877c6.588,12.163,53.719-3.294,57.773-9.629
				s-2.787-23.565-10.136-30.153c-7.348-6.588-8.615-11.402-8.615-11.402L390.062,152.018z"/>
			<path style="fill:#C16A2F;" d="M333.302,201.936c0,0,36.741,2.534,47.637-1.52s-3.547-14.697-24.325-12.669
				c-20.778,2.027-31.927,11.656-31.927,11.656L333.302,201.936z"/>
			<path style="fill:#29496B;" d="M336.09,196.108c0,0,5.574-1.774,7.855-3.927c2.281-2.154,5.828-2.407,9.755-1.774
				c3.928,0.633,4.561,2.027,4.561,2.027s0.887,4.688-0.127,6.208c-1.014,1.52-12.669,1.647-17.357,1.14
				C336.09,199.275,333.049,198.515,336.09,196.108z"/>
			<path style="fill:#29496B;" d="M369.284,153.538c0,0,15.457,1.52,36.741-0.253c21.285-1.774,21.538-3.548,20.018-7.855
				c-1.52-4.308-9.629-1.774-14.696-3.041c-5.068-1.267-36.235,2.787-36.235,2.787L369.284,153.538z"/>
			<path style="fill:#C16A2F;" d="M327.892,122.352c0,0-14.619,4.642-17.881,18.776c-2.549,11.047-5.734,31.766-2.99,46.752
				c2.744,14.986,21.745,19.571,21.745,19.571l3.98-83.622L327.892,122.352z"/>
			<rect x="383.474" y="99.566" style="fill:#A9402C;" width="27.366" height="46.117"/>
			<polygon style="fill:#D14F2D;" points="432.378,142.389 410.586,145.683 410.586,99.566 432.378,99.566 			"/>
			<path style="fill:#0F2330;" d="M363.545,125.943l-1.033,2.804c0,0-20.217,2.656-27.005,12.544
				c-6.788,9.887-10.773,44.271-7.969,46.337c2.804,2.066,8.559,2.066,11.068-0.443c2.509-2.509,7.674-30.4,10.625-34.384
				c2.951-3.984,22.726-9.445,26.415-16.971c3.689-7.526,1.918-8.854,1.918-8.854L363.545,125.943z"/>
			<path style="fill:#152D40;" d="M399.995,125.106c0,0,2.509,5.608-4.575,17.807c-7.083,12.199-22.578,11.117-26.907,14.855
				c-4.329,3.738-4.722,31.285-8.067,33.843c-3.345,2.558-10.232,0.984-14.56,0c-4.329-0.984,8.067-48.6,11.609-53.913
				c3.542-5.313,15.347-7.083,15.347-7.083l0.787-5.116L399.995,125.106z"/>
			<path style="fill:#D97938;" d="M347.1,122.563c0,0,9.92,4.855,14.142,16.252c4.221,11.398-11.528,63.689-19.971,67.277
				c-8.443,3.588-23.509,6.598-26.676-22.741c-3.166-29.339,13.298-57.2,18.996-59.944"/>
			<path style="fill:#29496B;" d="M330.674,119.065l-9.461-0.674l-8.939-0.637c-1.626-0.116-2.85-1.528-2.734-3.154l0,0
				c0.116-1.626,1.528-2.85,3.154-2.734l18.4,1.311c1.626,0.116,2.85,1.528,2.734,3.154l0,0
				C333.711,117.956,332.299,119.181,330.674,119.065z"/>
			<path style="fill:#E1964F;" d="M328.57,113.153c0,0-1.623-1.968-2.853-2.607c-1.23-0.64-2.312-0.197-2.312-0.197
				s-1.279-0.787-2.263-0.787c-0.984,0-1.476,0.59-1.476,0.59s-1.082-0.64-1.82-0.541c-0.738,0.098-1.082,0.59-1.082,0.59
				s-0.885-0.443-1.918,0.049s-2.706,3.099-2.214,5.559c0.492,2.459,2.656,3.099,3.197,2.902s0.689-0.59,0.689-0.59
				s1.082,1.377,2.115,0.935c1.033-0.443,1.033-0.443,1.033-0.443s1.23,0.885,2.017,0.541c0.787-0.344,0.787-0.344,0.787-0.344
				s0.639,0.738,1.672,0.59c1.033-0.148,1.23-0.492,1.525-0.836c0.295-0.344-1.537-1.621-1.377-2.312
				C325.201,112.317,328.57,113.153,328.57,113.153z"/>
			<path style="fill:#152D40;" d="M368.119,74.834c0,0-7.28-0.639-8.461,10.133c-1.181,10.773-3.345,10.428-7.87,13.478
				c-3.177,2.141-17.02,2.804-19.971,7.231c-2.952,4.427,1.918,10.92,12.543,9.297c10.625-1.623,17.905-3.345,21.299-13.38
				C369.054,91.559,368.119,74.834,368.119,74.834z"/>
			<path style="fill:#2867A4;" d="M364.282,126.385l26.71,1.181c3.775,0,11.477-0.162,11.363-3.935
				c-0.375-12.386-0.498-48.072-3.612-49.369c-4.156-1.732-11.428-5.195-11.428-5.195l-12.121,1.499c0,0-7.965,1.964-9.811,5.195
				c-0.474,0.828-0.932,3.903-1.351,8.024c-0.301,2.937-0.578,6.407-0.831,9.967c-0.434,6.153-0.839,13.587-1.111,18.917
				C361.896,116.493,360.455,126.385,364.282,126.385z"/>
			<path style="fill:#152D40;" d="M367.918,45.031c0,0-3.772,9.602-0.514,14.746c3.258,5.144,5.83,0.771,5.83,0.771l-3.344-14.746
				L367.918,45.031z"/>
			<path style="fill:#C17638;" d="M385.921,62.006l0.172,5.487c0,0-4.801,3.944-7.945,3.772c-3.143-0.171-2.686-1.029-2.686-1.029
				l-0.057-3.829C375.405,66.406,382.949,62.063,385.921,62.006z"/>
			<path style="fill:#E1964F;" d="M369.419,60.078c0.343,5.83,3.556,7.243,6.3,8.1c2.733,0.854,7.767-1.612,9.585-4.684
				c0.004-0.01,0.01-0.021,0.017-0.031c0.089-0.154,0.175-0.309,0.25-0.466h0.003c1.512-2.984,1.204-6.365,1.204-6.365
				s0.086-1.941-0.014-4.228c-0.099-2.287-0.388-4.914-1.128-6.286c-1.488-2.743-5.974-3.402-7.946-3.402
				c-1.972,0-5.744,1.458-7.287,3.515C368.861,48.288,369.317,58.364,369.419,60.078z"/>
			<path style="fill:#E1964F;" d="M386.736,51.803c0,0,1.543,0.086,2.358,1.672c0.814,1.586,0.214,5.187-2.615,5.572
				C383.649,59.433,386.736,51.803,386.736,51.803z"/>
			<path style="fill:#151A25;" d="M369.461,46.96c0,0,1.886,0.643,6.087,0.429c4.201-0.214,6.13-0.6,6.13-0.6
				s-0.386,2.4,0.514,4.329c0.9,1.929,1.886,1.5,2.143,3.001c0.257,1.5,0.171,2.315,0.943,2.272
				c0.772-0.043,0.707-3.408,1.179-4.137c0.472-0.729,2.1,0.321,2.25,0.664c0.15,0.343,2.272-6.001-1.822-8.209
				c0,0-1.265-3.129-6.709-3.365C374.733,41.108,370.382,43.037,369.461,46.96z"/>
			<path style="fill:#151A25;" d="M381.063,52.546c0,0-0.572-1-2.115-1c-1.543,0-1.686,0.943-2.172,0.857
				c-0.486-0.086-0.286-1.658,1.286-1.972C379.634,50.117,381.092,50.86,381.063,52.546z"/>
			<path style="fill:#151A25;" d="M369.799,52.518c0,0,0.489-1,1.807-1s1.441,0.943,1.856,0.857
				c0.415-0.086,0.244-1.657-1.099-1.972C371.02,50.089,369.775,50.832,369.799,52.518z"/>
			<path style="fill:#151A25;" d="M377.948,54.182c0,0.485,0.23,0.879,0.514,0.879c0.284,0,0.514-0.393,0.514-0.879
				c0-0.485-0.23-0.879-0.514-0.879C378.178,53.304,377.948,53.697,377.948,54.182z"/>
			<path style="fill:#151A25;" d="M371.99,54.14c0,0.485,0.23,0.879,0.514,0.879c0.284,0,0.514-0.393,0.514-0.879
				c0-0.485-0.23-0.879-0.514-0.879C372.22,53.261,371.99,53.654,371.99,54.14z"/>
			<path style="fill:#B2BFE1;" d="M369.261,56.347c0,0,3.486-1.315,6.458-0.943c2.972,0.372,8.402,1.915,8.402,1.915
				s0.2,5.172-2.572,7.373c-2.772,2.2-4.258,2.515-6.487,2.286c-2.229-0.229-4.201-1.343-4.858-2.886
				C369.546,62.549,368.889,57.404,369.261,56.347z"/>
			<polygon style="fill:#EFF5E1;" points="386.028,54.333 383.757,57.269 384.078,57.526 385.921,55.018 			"/>
			<path style="fill:#EFF5E1;" d="M382.557,63.377c0,0,1.615,0.631,2.747,0.117c0.004-0.01,0.01-0.021,0.017-0.031
				c0.089-0.154,0.175-0.309,0.25-0.466c-0.103,0.031-1.516,0.463-2.63-0.154L382.557,63.377z"/>
			<path style="fill:#9FAFD3;" d="M382.835,57.976c0,0-4.887-1.715-8.202-1.715c-3.458,0-4.944,1-4.944,1l0.2,3.058
				c0,0,1.572-1.543,5.801-1c4.23,0.543,6.344,1.486,6.344,1.486L382.835,57.976z"/>
			<path style="fill:#9FAFD3;" d="M381.806,61.377c0,0-9.059-2.343-11.745-0.429l0.229,1.429c0,0,1.372-1.315,6.373-0.4
				c5.001,0.915,4.687,0.915,4.687,0.915L381.806,61.377z"/>
			<path style="fill:#2867A4;" d="M366.83,46.975c0.038,5.35,12.74,2.874,15.281,2.328c0.281-0.062,0.439-0.099,0.439-0.099
				s0.628,9.887,2.112,12.229c0.761,1.2,3.093,1.667,5.291,0.686c0.003-0.003,0.007-0.003,0.01-0.003
				c2.092-0.94,4.057-3.193,4.417-7.369c0.741-8.573-2.459-15.83-10.631-17.431C375.575,35.713,366.776,38.457,366.83,46.975z"/>
			<path style="fill:#152D40;" d="M382.111,49.303c0.281-0.062,0.439-0.099,0.439-0.099s0.628,9.887,2.112,12.229
				c0.761,1.2,3.093,1.667,5.291,0.686c-0.679,0.117-2.538,0.281-3.46-1.2c-1.145-1.828-2.802-12.373-2.802-12.373l-1.543-0.6
				L382.111,49.303z"/>
			<path style="fill:#1C3B51;" d="M383.721,48.711c0,0-0.029-0.809-0.757-1.109c-0.729-0.3-7.845-2.1-10.845-1.929
				c-3.001,0.171-6.516,1.457-7.116,2.615c-0.6,1.157,6.944,2.272,11.788,2.058C381.635,50.132,383.721,48.711,383.721,48.711z"/>
			<path style="fill:#1C3B51;" d="M388.922,52.661c0,2.32,1.046,4.201,2.336,4.201c1.29,0,2.336-1.881,2.336-4.201
				c0-2.32-1.046-4.201-2.336-4.201C389.968,48.46,388.922,50.341,388.922,52.661z"/>
			<path style="fill:#275C89;" d="M383.919,46.854c0,0-8.386-4.324-16.243-0.73c0,0,0.991-2.92,2.839-4.324
				c1.849-1.404,4.781-2.567,9.046-0.842C383.589,42.587,383.919,46.854,383.919,46.854z"/>
			<path style="fill:#1C3B51;" d="M363.349,93.802c3.12,1.33,9.243,3.394,17.274,3.394c11.861,0,17.143-4.762,17.143-4.762
				l0.064-11.107c0,0-11.06,7.47-21.449,6.605c-7.141-0.596-10.684-2.788-12.201-4.097
				C363.879,86.771,363.602,90.242,363.349,93.802z"/>
			<path style="fill:#C16A2F;" d="M315.922,111.333c0,0-1.116,3.224-0.026,4.888c1.09,1.664-0.148,1.196-0.78,0.263
				C314.482,115.55,314.489,113.646,315.922,111.333z"/>
			<path style="fill:#C16A2F;" d="M318.894,111.511c0,0-1.116,3.224-0.026,4.888c1.09,1.664-0.148,1.196-0.78,0.263
				C317.454,115.728,317.461,113.823,318.894,111.511z"/>
			<path style="fill:#C16A2F;" d="M322.117,112.182c0,0-1.116,3.224-0.026,4.888c1.09,1.664-0.148,1.196-0.78,0.263
				C320.678,116.399,320.685,114.494,322.117,112.182z"/>
			<path style="fill:#152D40;" d="M387.463,69.115l-1.328-3.059c0,0-5.945,3.925-8.196,4.098l-0.404,1.039l-0.462-1.212
				c0,0-1.385-0.346-1.732-0.866c-0.346-0.52-0.866,2.367-0.866,2.367s0.52,1.212,3.983,1.212
				C381.922,72.694,387.463,69.115,387.463,69.115z"/>
			<path style="fill:#B2BFE1;" d="M377.766,72.463c0,0-4.329,39.18-3.983,47.232l-1.213,0.001c0,0,1.559-38.344,4.503-47.262
				L377.766,72.463z"/>
			<path style="fill:#152D40;" d="M363.79,114.777c0,0-0.098-1.574,3.05-2.755c3.148-1.181,17.807,0.295,21.545-1.476
				c3.738-1.771,4.132-0.935,5.116-1.131s0.295-11.658,0.885-17.266c0.59-5.608,2.312-16.233,3.984-17.905
				c0,0,1.587-2.052,6.198,4.034c3.689,4.87,1.771,40.435-6.051,43.829c-10.545,4.576-27.448,5.165-31.137,4.132
				s-4.132-4.575-4.132-4.575L363.79,114.777z"/>
			<path style="fill:#102533;" d="M372.325,119.523c0,3.056-2.412,5.534-5.386,5.534c-2.975,0-5.386-2.478-5.386-5.534
				s2.411-5.534,5.386-5.534C369.914,113.99,372.325,116.467,372.325,119.523z"/>
			<path style="fill:#D97938;" d="M320.995,108.48c0,0,2.066-4.771,6.591-5.46c4.526-0.689,10.576,1.082,14.216,5.509
				c3.64,4.427,14.167,5.804,16.725,7.674c2.558,1.869,1.672,6.788-1.574,7.87c-3.247,1.082-13.478-1.279-17.709,0.885
				c-4.23,2.164-11.855,1.131-15.397-0.344C320.306,123.139,316.961,115.17,320.995,108.48z"/>
			<path style="fill:#29496B;" d="M369.536,123.764l-8.294-1.056l-7.837-0.997c-1.425-0.181-2.42-1.596-2.221-3.159l0,0
				c0.199-1.563,1.516-2.683,2.941-2.502l16.131,2.053c1.425,0.181,2.42,1.596,2.221,3.159l0,0
				C372.278,122.826,370.962,123.946,369.536,123.764z"/>
			<path style="fill:#E1964F;" d="M370.382,118.072c0,0-1.623-1.968-2.853-2.607c-1.23-0.639-2.312-0.197-2.312-0.197
				s-1.279-0.787-2.263-0.787c-0.984,0-1.476,0.59-1.476,0.59s-1.082-0.64-1.82-0.541c-0.738,0.098-1.082,0.59-1.082,0.59
				s-0.885-0.443-1.918,0.049c-1.033,0.492-2.706,3.099-2.214,5.559c0.492,2.46,2.656,3.099,3.197,2.902
				c0.541-0.197,0.689-0.59,0.689-0.59s1.082,1.377,2.115,0.935c1.033-0.443,1.033-0.443,1.033-0.443s1.23,0.885,2.017,0.541
				c0.787-0.344,0.787-0.344,0.787-0.344s0.639,0.738,1.672,0.59c1.033-0.148,1.23-0.492,1.525-0.836
				c0.295-0.344-1.537-1.621-1.377-2.312C367.013,117.236,370.382,118.072,370.382,118.072z"/>
			
				<ellipse transform="matrix(0.2298 -0.9732 0.9732 0.2298 142.1404 407.581)" style="fill:#FEF6D4;" cx="328.57" cy="113.99" rx="7.969" ry="7.969"/>
			<ellipse style="fill:#152D40;" cx="316.642" cy="217.587" rx="23.945" ry="24.584"/>
			<ellipse style="fill:#2867A4;" cx="321.908" cy="218.226" rx="11.917" ry="14.686"/>
			<path style="fill:#29496B;" d="M326.593,195.398c0,0-10.217,27.883-7.45,31.076s6.173,3.193,8.301-4.044
				c2.129-7.237,5.747-23.2,5.747-23.2L326.593,195.398z"/>
			<path style="fill:#C16A2F;" d="M290.353,208.27c0,0,2.914-2.914,7.602-2.534c4.688,0.38,4.561,3.547,8.362,3.547
				c3.801,0,4.688-6.335,15.71-7.855c11.022-1.52,13.303,4.688,18.371,5.828c5.068,1.14,1.013-7.475-10.516-14.063
				c-11.529-6.588-23.945-3.801-32.687,2.154C288.453,201.302,286.045,209.157,290.353,208.27z"/>
			<path style="fill:#FEF6D4;" d="M332.416,133.521c0,0,8.869-1.9,11.276-1.014s-4.308,3.041,0.633,3.547
				c4.941,0.507,13.176,2.027,13.81,3.294c0.633,1.267-16.09-0.887-17.864-1.267c-1.774-0.38,0-3.674,0-3.674s-7.348,0-7.855,0
				C331.909,134.408,332.416,133.521,332.416,133.521z"/>
			<path style="fill:#C16A2F;" d="M343.755,196.044c0,0,13.493-32.877,12.543-42.759c-0.95-9.882-1.9-1.14-6.271,15.203
				C345.655,184.832,339.574,199.085,343.755,196.044z"/>
			<path style="fill:#C16A2F;" d="M357.921,116.465c0,0-1.116,3.224-0.026,4.888c1.09,1.664-0.148,1.196-0.78,0.263
				C356.482,120.682,356.488,118.777,357.921,116.465z"/>
			<path style="fill:#C16A2F;" d="M360.893,116.642c0,0-1.116,3.224-0.026,4.888c1.09,1.664-0.148,1.196-0.781,0.263
				C359.454,120.859,359.461,118.954,360.893,116.642z"/>
			<path style="fill:#C16A2F;" d="M364.117,117.313c0,0-1.116,3.224-0.026,4.888s-0.148,1.196-0.78,0.263
				C362.677,121.53,362.684,119.625,364.117,117.313z"/>
			<path style="fill:#C16A2F;" d="M429.083,165.194c0,0-21.158,4.941-22.172,6.715C405.898,173.683,433.011,167.982,429.083,165.194
				z"/>
			<path style="fill:#C16A2F;" d="M430.477,170.895c0,0-21.158,4.941-22.172,6.715C407.292,179.384,434.405,173.683,430.477,170.895
				z"/>
			<path style="fill:#C16A2F;" d="M431.237,176.343c0,0-21.158,4.941-22.172,6.715C408.052,184.832,435.165,179.131,431.237,176.343
				z"/>
			<polygon style="fill:#EA6F57;" points="424.649,143.529 420.769,144.115 420.722,99.693 424.649,99.693 			"/>
		</g>
	</g>
	<g>
		<path style="fill:#F0D0C7;" d="M97.99,304.092c0,0,59.869-44.751,118.529-36.284c58.66,8.466,107.039,50.193,166.304,48.379
			c59.265-1.814,67.126,56.846,45.355,85.268c-21.771,28.423-201.983,3.024-292.694,3.628
			C44.773,405.688,53.24,336.143,97.99,304.092z"/>
		<ellipse style="fill:#BFBBB8;" cx="240.105" cy="458.981" rx="171.444" ry="12.019"/>
		<g>
			<rect x="208.6" y="297.742" style="fill:#C16A2F;" width="97.444" height="100.587"/>
			<rect x="305.258" y="297.742" style="fill:#D97938;" width="97.444" height="100.587"/>
			<g>
				<path style="fill:#152D40;" d="M121.819,451.059c3.789-4.907,6.182-11.395,6.371-18.566c0.21-7.961-2.335-15.226-6.6-20.505
					l-0.05-8.584l-15.953-0.394l-0.009,0.431c-0.133-0.006-0.265-0.019-0.398-0.023c-13.122-0.346-24.095,12.111-24.509,27.823
					c-0.414,15.712,9.888,28.729,23.01,29.075c0.458,0.012,0.912,0.005,1.364-0.014l16.829,0.039L121.819,451.059z"/>
				
					<ellipse transform="matrix(0.0263 -0.9997 0.9997 0.0263 -313.1384 542.3174)" style="fill:#0E202D;" cx="121.825" cy="431.906" rx="28.459" ry="23.768"/>
				<path style="fill:#152D40;" d="M301.094,448.909c3.621-4.691,5.909-10.892,6.09-17.747c0.201-7.609-2.232-14.554-6.309-19.601
					l-0.048-8.205l-15.249-0.377l-0.008,0.412c-0.127-0.006-0.253-0.018-0.381-0.022c-12.543-0.33-23.032,11.577-23.427,26.595
					c-0.396,15.019,9.452,27.461,21.995,27.792c0.438,0.012,0.872,0.005,1.304-0.013l16.086,0.037L301.094,448.909z"/>
				
					<ellipse transform="matrix(0.0263 -0.9997 0.9997 0.0263 -137.281 720.2579)" style="fill:#0E202D;" cx="301.099" cy="430.601" rx="27.203" ry="22.719"/>
				<rect x="190.115" y="412.05" style="fill:#2D2214;" width="151.824" height="24.047"/>
				<path style="fill:#0E202D;" d="M378.031,452.601c4.263-5.522,6.956-12.822,7.168-20.891c0.236-8.958-2.627-17.133-7.427-23.073
					l-0.057-9.659l-17.951-0.443l-0.01,0.485c-0.15-0.007-0.298-0.021-0.448-0.025c-14.765-0.389-27.113,13.628-27.578,31.308
					c-0.466,17.68,11.127,32.327,25.892,32.716c0.515,0.014,1.026,0.005,1.535-0.016l18.936,0.044L378.031,452.601z"/>
				
					<ellipse transform="matrix(0.0263 -0.9997 0.9997 0.0263 -62.815 797.6083)" style="fill:#152D40;" cx="378.037" cy="431.05" rx="32.023" ry="26.744"/>
				<path style="fill:#29496B;" d="M394.77,430.94c-0.254,9.653-6.996,17.307-15.058,17.094c-8.062-0.212-14.392-8.21-14.137-17.863
					c0.254-9.653,6.996-17.307,15.058-17.094C388.695,413.289,395.024,421.287,394.77,430.94z"/>
				<path style="fill:#A9402C;" d="M381.081,404.617c8.546,0.225,16.023,5.232,20.72,12.833c2.848-1.848,4.734-5.05,4.734-8.701
					c0-5.734-4.639-10.373-10.373-10.373H298.58c-5.913,0-10.628-4.941-10.354-10.845l2.772-60.824
					c0.273-5.903-4.441-10.845-10.354-10.845H168.058c-3.583,0-6.912,1.848-8.808,4.894l-24.226,38.918
					c-0.971,1.565-2.348,2.848-3.989,3.706l-41.313,21.661c-2.98,1.565-5.017,4.47-5.469,7.808l-1.952,14.522
					c-0.83,6.214,4.008,11.75,10.288,11.75h89.765c4.347-10.816,14.419-18.389,26.149-18.389c11.731,0,21.802,7.572,26.15,18.389
					h123.331C362.944,410.181,371.501,404.365,381.081,404.617z"/>
				<rect x="108.074" y="429.495" style="fill:#152D40;" width="68.132" height="12.495"/>
				<path style="fill:#0E202D;" d="M210.333,454.094c4.263-5.522,6.956-12.822,7.169-20.891c0.236-8.958-2.627-17.133-7.426-23.073
					l-0.057-9.659l-17.951-0.443l-0.01,0.485c-0.15-0.007-0.298-0.021-0.448-0.025c-14.765-0.389-27.113,13.628-27.578,31.308
					c-0.466,17.68,11.127,32.327,25.892,32.716c0.515,0.014,1.026,0.005,1.535-0.016l18.936,0.044L210.333,454.094z"/>
				<path style="fill:#BC5446;" d="M234.653,419.122c-4.347-10.816-14.419-18.389-26.15-18.389
					c-11.731,0-21.802,7.572-26.149,18.389l-22.415,1.65c0,0,5.387-8.796,6.365-11.08c3.123-7.294,8.251-15.56,24.99-19.567
					C208.032,386.117,227.807,388.71,234.653,419.122z"/>
				<polygon style="fill:#FCF1D1;" points="240.094,322.625 221.546,360.024 177.526,359.675 174.037,359.647 170.02,359.619 
					161.269,359.543 156.129,359.506 153.432,359.487 143.276,359.402 164.654,322.625 				"/>
				<path style="fill:#FCF1D1;" d="M230.586,360.342l17.914-37.675h31.359c3.258,0,5.842,2.747,5.641,6l-1.893,30.743
					L230.586,360.342z"/>
				<path style="fill:#A9402C;" d="M229.25,358.298l2.515-5.501h6.13c0,0,1.257-5.187,6.444-6.13
					c5.187-0.943,8.801-0.471,9.902,4.086c1.1,4.558-4.715,8.487-12.259,7.387C234.436,357.041,229.25,358.298,229.25,358.298z"/>
				<path style="fill:#372B19;" d="M175.734,435.153h-91c-5.338,0-9.666-4.327-9.666-9.666l0,0c0-5.338,4.327-9.666,9.666-9.666h91
					c5.338,0,9.666,4.328,9.666,9.666l0,0C185.4,430.826,181.073,435.153,175.734,435.153z"/>
				<path style="fill:#2D2214;" d="M180.465,435.153h-18.891c-2.726,0-4.935-2.21-4.935-4.935v-9.461
					c0-2.726,2.21-4.935,4.935-4.935h18.891c2.726,0,4.935,2.21,4.935,4.935v9.461C185.4,432.944,183.191,435.153,180.465,435.153z"
					/>
				<path style="fill:#152D40;" d="M85.531,405.7l1.23-10.607c0.323-2.787,2.684-4.89,5.49-4.89h56.22
					c3.276,0,5.833,2.834,5.498,6.093l-1.065,10.344c-0.289,2.809-2.649,4.948-5.472,4.961l-56.385,0.262
					C87.732,411.879,85.149,408.993,85.531,405.7z"/>
				
					<ellipse transform="matrix(0.0263 -0.9997 0.9997 0.0263 -227.5906 631.4224)" style="fill:#152D40;" cx="210.339" cy="432.543" rx="32.023" ry="26.744"/>
				
					<ellipse transform="matrix(0.0263 -0.9997 0.9997 0.0263 -225.0213 633.0684)" style="fill:#29496B;" cx="212.475" cy="432.049" rx="17.485" ry="14.603"/>
				<path style="fill:#BC5446;" d="M159.232,395.547c0.707,0.236,40.549-24.754,66.01-26.876l-4.008-5.422
					c0,0-29.705,6.365-62.238,30.176L159.232,395.547z"/>
				<path style="fill:#BC5446;" d="M97.174,386.926l55.221,0.291l4.951-3.576l-55.559,0.275l34.262-18.86l-3.143-0.786
					l-36.294,20.495C95.582,385.348,95.99,386.92,97.174,386.926z"/>
				<path style="fill:#913023;" d="M230.35,361.913l-0.314,39.921C230.036,401.834,237.265,369.615,230.35,361.913z"/>
				<ellipse style="fill:#FCF1D1;" cx="96.876" cy="400.734" rx="7.426" ry="7.78"/>
				<ellipse style="fill:#FCF1D1;" cx="141.197" cy="400.734" rx="7.426" ry="7.78"/>
				<path style="fill:#C17638;" d="M201.925,343.17l0.165,5.277c0,0-4.617,3.793-7.64,3.628c-3.023-0.165-2.583-0.989-2.583-0.989
					l-0.055-3.683C191.811,347.403,199.066,343.225,201.925,343.17z"/>
				<path style="fill:#E1964F;" d="M186.055,341.317c0.33,5.607,3.42,6.965,6.058,7.79c2.628,0.821,7.47-1.55,9.218-4.505
					c0.003-0.01,0.01-0.02,0.016-0.03c0.086-0.148,0.168-0.297,0.241-0.448h0.003c1.454-2.869,1.158-6.121,1.158-6.121
					s0.083-1.867-0.013-4.066c-0.096-2.2-0.373-4.726-1.085-6.045c-1.431-2.638-5.745-3.271-7.641-3.271
					c-1.896,0-5.524,1.402-7.008,3.38C185.517,329.979,185.956,339.668,186.055,341.317z"/>
				<path style="fill:#E1964F;" d="M202.708,333.359c0,0,1.484,0.083,2.267,1.608c0.783,1.525,0.206,4.988-2.515,5.359
					C199.74,340.697,202.708,333.359,202.708,333.359z"/>
				<path style="fill:#151A25;" d="M186.094,328.701c0,0,1.814,0.618,5.854,0.412c4.04-0.206,5.895-0.577,5.895-0.577
					s-0.371,2.309,0.495,4.164c0.866,1.855,1.814,1.443,2.061,2.886c0.247,1.443,0.165,2.226,0.907,2.185
					c0.742-0.041,0.68-3.277,1.134-3.978c0.453-0.701,2.02,0.309,2.164,0.639c0.144,0.33,2.185-5.771-1.752-7.895
					c0,0-1.216-3.009-6.452-3.236C191.165,323.074,186.981,324.929,186.094,328.701z"/>
				<path style="fill:#151A25;" d="M197.253,334.074c0,0-0.55-0.962-2.034-0.962c-1.484,0-1.622,0.907-2.089,0.824
					c-0.467-0.082-0.275-1.594,1.237-1.896C195.878,331.738,197.28,332.452,197.253,334.074z"/>
				<path style="fill:#151A25;" d="M186.42,334.046c0,0,0.47-0.962,1.738-0.962s1.386,0.907,1.785,0.824
					c0.399-0.082,0.235-1.594-1.057-1.896C187.594,331.71,186.396,332.425,186.42,334.046z"/>
				<path style="fill:#151A25;" d="M194.257,335.647c0,0.467,0.221,0.845,0.495,0.845c0.273,0,0.495-0.378,0.495-0.845
					c0-0.467-0.221-0.845-0.495-0.845C194.478,334.802,194.257,335.18,194.257,335.647z"/>
				<ellipse style="fill:#151A25;" cx="189.021" cy="335.606" rx="0.495" ry="0.845"/>
				<path style="fill:#B2BFE1;" d="M185.902,337.729c0,0,3.353-1.264,6.211-0.907c2.858,0.357,8.08,1.841,8.08,1.841
					s0.192,4.974-2.473,7.091c-2.666,2.116-4.095,2.419-6.239,2.199c-2.144-0.22-4.04-1.292-4.672-2.776
					C186.177,343.693,185.545,338.746,185.902,337.729z"/>
				<polygon style="fill:#EFF5E1;" points="202.028,335.791 199.843,338.615 200.152,338.863 201.925,336.451 				"/>
				<path style="fill:#EFF5E1;" d="M198.689,344.49c0,0,1.553,0.607,2.642,0.112c0.003-0.01,0.01-0.02,0.016-0.03
					c0.086-0.148,0.168-0.297,0.241-0.448c-0.099,0.03-1.458,0.445-2.53-0.148L198.689,344.49z"/>
				<path style="fill:#9FAFD3;" d="M198.956,339.295c0,0-4.699-1.649-7.888-1.649c-3.325,0-4.755,0.962-4.755,0.962l0.192,2.941
					c0,0,1.512-1.484,5.579-0.962c4.068,0.522,6.101,1.429,6.101,1.429L198.956,339.295z"/>
				<path style="fill:#9FAFD3;" d="M197.967,342.566c0,0-8.712-2.254-11.295-0.412l0.22,1.374c0,0,1.319-1.264,6.129-0.385
					c4.81,0.88,4.507,0.88,4.507,0.88L197.967,342.566z"/>
				<path style="fill:#2867A4;" d="M203.409,349.656c0,0,7.61,1.57,10.124,4.399c2.515,2.829,2.986,6.129,2.986,6.129l-39.135-0.471
					c0,0,3.929-5.186,8.016-6.444C189.486,352.012,203.409,349.656,203.409,349.656z"/>
				<path style="fill:#152D40;" d="M203.409,349.656l-1.264-2.913c0,0-5.661,3.738-7.805,3.902l-0.385,0.989l-0.44-1.154
					c0,0-1.319-0.33-1.649-0.825c-0.33-0.495-0.824,2.254-0.824,2.254s0.495,1.154,3.793,1.154
					C198.132,353.064,203.409,349.656,203.409,349.656z"/>
				<path style="fill:#151A25;" d="M165.456,350.283c-5.762,0-10.609,3.913-12.023,9.204l2.697,0.019
					c1.462-3.48,4.904-5.922,8.921-5.922c4.083,0,7.563,2.508,8.987,6.063l3.489,0.028
					C176.187,354.281,171.293,350.283,165.456,350.283z"/>
				<path style="fill:#C17638;" d="M171.491,355.941c0,0,3.104-2.357,4.361-2.397c1.257-0.039,2.043,1.925,2.357,2.161
					c0.314,0.236,2.593,1.965,3.851,4.086l-8.023-0.145c0,0-0.857-0.405-1.053-0.956
					C172.787,358.141,171.019,357.591,171.491,355.941z"/>
				<path style="fill:#C17638;" d="M157.542,353.073c0,0,0.864,2.436,0.786,3.261c-0.079,0.825-0.707,1.454-1.179,1.297
					c0,0,0.082,1.628-1.02,1.875l-2.949,0.05c0,0-0.354-0.825-0.079-1.454c0.275-0.629,0.118-1.965,0.707-2.554
					c0.589-0.589,0.629-1.965,1.257-2.593C155.695,352.326,157.149,352.601,157.542,353.073z"/>
				<path style="fill:#E1964F;" d="M160.135,354.919c0,0,0.432,0.943-0.118,2.358s-1.375,1.886-2.004,1.729
					c-0.629-0.157-0.707-1.022-0.196-2.2C158.328,355.627,160.135,354.919,160.135,354.919z"/>
				<path style="fill:#151A25;" d="M170.02,359.619l-8.751-0.076c0.755-1.707,2.424-2.895,4.357-2.895
					C167.587,356.648,169.275,357.865,170.02,359.619z"/>
				<polygon style="fill:#151A25;" points="161.53,353.642 163.947,358.357 166.599,358.357 164.183,353.171 				"/>
				<path style="fill:#BC5446;" d="M243.159,406.863c0,0,35.127-43.614,36.541-39.606c1.415,4.008,1.886,33.005-1.414,40.785
					c-3.301,7.78-33.948,5.422-35.834,4.715C240.566,412.05,241.037,409.692,243.159,406.863z"/>
			</g>
			<rect x="313.431" y="304.972" style="fill:#FEF6D4;" width="21.06" height="10.059"/>
			<rect x="349.422" y="297.742" style="fill:#EF9A60;" width="13.831" height="100.273"/>
		</g>
	</g>
</g>
</svg>
